<svg width="24" height="24" viewBox="0 0 24 24" fill="none" xmlns="http://www.w3.org/2000/svg">
    <g clip-path="url(#clip0)">
        <path d="M12 24C18.6274 24 24 18.6274 24 12C24 5.37258 18.6274 0 12 0C5.37258 0 0 5.37258 0 12C0 18.6274 5.37258 24 12 24Z" fill="#FA305C"/>
        <path d="M20.5413 12C20.5413 16.7172 16.7172 20.5413 12 20.5413C7.28275 20.5413 3.45868 16.7172 3.45868 12C3.45868 7.28278 7.28275 3.45871 12 3.45871C16.7172 3.45871 20.5413 7.28278 20.5413 12Z" fill="white" stroke="white" stroke-width="0.632689"/>
        <path d="M10.6742 15.6778C10.6742 15.7363 10.6628 15.8088 10.6398 15.8954C10.5685 16.1677 10.5227 16.3229 10.5023 16.3611C10.4335 16.5087 10.3202 16.6143 10.1623 16.6779C10.2769 16.739 10.3342 16.8319 10.3342 16.9566C10.3342 17.0075 10.3253 17.0661 10.3075 17.1322L10.212 17.4835C10.1534 17.6947 10.0693 17.8487 9.95983 17.9454C9.84265 18.0497 9.67712 18.1019 9.46319 18.1019H7.39258L8.12989 15.3533H10.2082C10.5189 15.3533 10.6742 15.4614 10.6742 15.6778ZM9.74205 16.0633H8.79081L8.69149 16.4298H9.64274L9.74205 16.0633ZM9.49756 16.9795H8.54631L8.44697 17.3498H9.39824L9.49756 16.9795ZM13.6175 15.3533L13.4264 16.0633H11.99L11.8945 16.4222H13.1361L12.9795 17.0025H11.7379L11.4437 18.1019H10.5803L11.3176 15.3533H13.6175ZM16.5975 15.3533L16.4065 16.0633H14.737L14.3894 17.3575H15.3368L15.5813 16.4527H16.4333L16.1888 17.3575C16.1073 17.6552 15.9888 17.8563 15.8335 17.9607C15.6909 18.0548 15.4591 18.1019 15.1382 18.1019H14.1907C13.9794 18.1019 13.8253 18.0841 13.7285 18.0485C13.5629 17.9899 13.4802 17.8767 13.4802 17.7087C13.4802 17.6171 13.4993 17.5 13.5375 17.3575L13.8851 16.0633C13.9615 15.7783 14.0825 15.5849 14.248 15.4831C14.3907 15.3965 14.6173 15.3533 14.9281 15.3533H16.5975Z" fill="#080C1B"/>
        <g clip-path="url(#clip1)">
            <path d="M6.73152 9.7527C5.99781 11.3476 5.72827 12.54 5.72827 12.54C5.72827 12.54 9.03229 12.1998 11.2127 14.6948C11.2127 14.6948 12.8847 13.9425 15.3042 14.7363C15.3042 14.7363 16.6686 13.0157 18.3758 12.9782C18.3758 12.9782 18.0856 11.6068 17.0449 10.4675C17.2689 9.94603 17.3776 9.27404 17.3776 9.27404C17.3776 9.27404 17.206 8.78936 16.1105 7.77785C16.0771 5.97661 15.026 5.09021 15.026 5.09021C15.026 5.09021 13.9719 5.5207 13.3559 6.46163C13.3559 6.46163 12.2591 6.48203 11.3685 6.73892L10.7124 6.77538C10.7124 6.77538 10.2984 5.95387 8.77278 5.46016C8.77278 5.46016 7.60233 5.78428 7.49331 8.37392C7.49331 8.37392 6.85324 8.22708 6.34961 9.75136C6.35028 9.7527 6.40111 9.76775 6.73152 9.7527Z" fill="#080C1B"/>
            <path d="M10.6684 7.71768C9.91066 6.61385 8.87431 6.23721 8.87431 6.23721C8.87431 6.23721 8.08643 6.79883 8.28608 8.09431C8.42854 7.35843 8.8509 6.99484 8.8509 6.99484C8.8509 6.99484 9.35453 7.36813 9.56421 8.12509C9.77389 8.88204 10.6684 7.71768 10.6684 7.71768Z" fill="#5F5F68"/>
            <path d="M12.2178 7.14096C9.22509 7.14096 7.95499 9.04756 7.95499 9.04756C8.13725 8.9894 8.33071 8.9753 8.51948 9.00642C8.51948 9.00642 7.40722 10.1256 6.85376 11.6523C6.85376 11.6523 8.23155 11.485 9.37725 12.2129C9.09568 9.82927 11.2891 8.97766 12.084 9.54094C11.975 9.22618 11.5938 8.72077 10.5858 8.93885C11.4827 8.00629 13.2628 8.40768 14.1731 9.53492C14.2367 9.35911 14.2789 9.17628 14.2988 8.99037C14.2988 8.99037 14.8172 9.26164 14.9626 9.69949C14.9961 9.41082 15.2339 9.06128 15.2339 9.06128C15.2339 9.06128 15.4292 9.31449 15.5576 9.75134C15.6524 9.62208 15.7804 9.52087 15.9281 9.45839C16.0757 9.39592 16.2375 9.37452 16.3963 9.39644C16.3963 9.39644 15.2104 7.14096 12.2178 7.14096Z" fill="#5F5F68"/>
            <path d="M10.5853 8.93756C9.2931 9.29647 8.49518 10.2578 8.17749 11.7349C8.60226 11.8215 9.00823 11.983 9.37637 12.2119C9.09479 9.82832 11.2882 8.9767 12.0831 9.53998C11.9761 9.22523 11.5932 8.71947 10.5853 8.93756Z" fill="white"/>
            <path d="M13.5688 7.30893C14.3631 7.64342 15.1406 8.06488 15.6549 9.19513L15.9716 9.44165C16.1078 9.39388 16.2532 9.37842 16.3963 9.39649C16.3963 9.39649 15.5733 7.83174 13.5688 7.30893Z" fill="#636363"/>
            <path d="M15.7354 10.1598C15.8969 9.79184 16.2002 9.77812 16.2002 9.77812C16.1765 10.0077 16.1066 10.2301 15.9949 10.4321C15.9269 10.3252 15.8388 10.2327 15.7354 10.1598Z" fill="white"/>
            <path d="M12.5906 10.5485C14.3372 10.8676 14.5108 12.8966 15.518 12.8966C16.13 12.8966 16.3517 12.539 16.3517 12.539C15.9571 12.5919 15.6712 12.2467 15.6495 12.0109C15.6277 11.775 15.6802 11.468 15.6802 11.468C15.6802 11.468 16.2153 11.4937 16.4464 11.6727C16.6604 11.5503 16.9336 11.5238 16.9336 11.5238C16.9336 11.5238 16.6464 11.0693 15.8943 10.8505C15.7983 11.0666 15.5565 11.2679 15.5565 11.2679C15.5565 11.2679 15.0823 10.5183 13.9386 10.2484C14.0194 10.3972 14.0692 10.5608 14.0851 10.7294C14.0851 10.7294 13.5584 10.3143 12.5906 10.5485Z" fill="white"/>
            <path d="M12.5248 11.4941C12.3202 11.2639 12.3636 11.0415 12.3636 11.0415C12.3636 11.0415 12.464 10.9375 12.7619 10.9375C13.3953 10.9375 13.9658 12.065 14.4728 12.54C13.7454 12.2858 12.4389 13.0418 12.1941 11.6329C12.4195 12.0296 12.7335 12.0323 12.7335 12.0323C12.6885 11.9297 12.6727 11.8168 12.6877 11.7058C12.8823 11.9149 13.2753 11.9222 13.2753 11.9222C12.8706 11.6319 12.6991 11.1194 12.6991 11.1194C12.5502 11.2679 12.5248 11.4941 12.5248 11.4941Z" fill="white"/>
            <path d="M12.3535 10.6488C11.3613 10.9595 11.9395 12.9872 13.2765 12.832C14.6135 12.6768 15.1867 13.0735 15.4221 13.6863C15.052 13.4501 14.6221 13.3246 14.1831 13.3247C14.2909 13.3723 14.3858 13.4449 14.4599 13.5365C14.534 13.628 14.5853 13.7359 14.6095 13.8512C14.3684 13.6218 14.0477 13.4949 13.7149 13.4973C13.0026 13.4973 12.2672 13.7609 11.6549 13.5024C10.9991 12.6133 11.2667 11.7386 11.2667 11.7386C10.9818 11.8924 10.9216 12.2129 10.9216 12.2129C10.9216 12.2129 10.7269 10.6351 12.3535 10.6488Z" fill="white"/>
            <path d="M15.4221 13.6873C14.0159 12.0052 11.7332 14.4179 11.2667 11.7386C11.2667 11.7386 10.9991 12.6133 11.6549 13.5023C12.2672 13.7609 13.0026 13.4973 13.7149 13.4973C14.0474 13.4951 14.3679 13.622 14.6088 13.8512C14.5847 13.736 14.5335 13.6281 14.4595 13.5366C14.3855 13.445 14.2907 13.3724 14.1831 13.3247C14.6222 13.3249 15.0521 13.4507 15.4221 13.6873Z" fill="white"/>
            <path d="M12.4358 9.03925C12.6759 9.58982 12.9471 9.89989 12.9471 9.89989C12.9471 9.89989 13.2815 9.94639 13.5825 9.80657C13.5828 9.80657 13.2585 9.24697 12.4358 9.03925Z" fill="white"/>
            <path d="M13.2876 7.24402C14.0828 7.57818 14.5845 7.98258 14.8854 8.9312L15.3566 9.03924C15.5462 9.38878 16.2341 9.37808 16.3953 9.39648C16.3963 9.39648 15.4874 7.65578 13.2876 7.24402Z" fill="#FA305C"/>
            <path d="M14.1877 6.68137C14.4713 6.17093 14.8472 6.07059 14.8472 6.07059C14.8472 6.07059 15.3378 6.66832 15.3692 7.65575C15.0804 7.43723 14.7592 7.26534 14.4172 7.14631C14.6044 7.12858 14.7933 7.1514 14.9709 7.21321C14.9501 6.91401 14.8458 6.62664 14.67 6.38367C14.67 6.38367 14.4857 6.42682 14.1877 6.68137Z" fill="#FA305C"/>
            <path d="M16.4634 12.3176C16.6327 12.1614 16.7718 11.9753 16.8737 11.7687C16.7603 11.7899 16.6504 11.8266 16.547 11.8778C16.4885 12.0169 16.46 12.1667 16.4634 12.3176Z" fill="#FA305C"/>
            <path d="M15.0277 4.89554L14.8892 4.96244C14.7208 5.0421 14.5579 5.13295 14.4016 5.23438C14.2463 5.33523 14.0972 5.44537 13.9552 5.56419C13.8137 5.68231 13.6788 5.80816 13.5512 5.94116C13.4873 6.00806 13.4251 6.07496 13.365 6.14654C13.3349 6.17999 13.3054 6.21712 13.2763 6.25358C13.2763 6.25358 11.9604 6.25123 11.3682 6.74193C12.3129 6.52351 13.4596 6.73993 13.4596 6.73993L13.5449 6.62018C13.5536 6.60814 13.5669 6.59008 13.5783 6.57469L13.6161 6.52619C13.6418 6.49274 13.6686 6.46163 13.6957 6.42985C13.7499 6.3663 13.8067 6.30408 13.8649 6.24321C13.9811 6.12184 14.1039 6.00693 14.2328 5.89901C14.3619 5.79055 14.4975 5.69002 14.6387 5.59797C14.7347 5.53542 14.834 5.47822 14.935 5.42504C15.0531 5.55514 15.1603 5.69464 15.2557 5.84215C15.3173 5.93782 15.3734 6.03716 15.4256 6.13885C15.4778 6.24053 15.5233 6.34523 15.5644 6.45193C15.6466 6.66651 15.7089 6.88821 15.7503 7.11422C15.7714 7.22728 15.7871 7.34134 15.7972 7.45541C15.8025 7.51227 15.8058 7.56913 15.8082 7.62566C15.8082 7.65398 15.8089 7.68208 15.8102 7.70995V7.7511V7.78722L15.8068 7.91266L15.9095 7.98323L15.9279 7.99595L15.9496 8.01133L15.9935 8.04478C16.0229 8.06719 16.0523 8.09094 16.0811 8.11502C16.1386 8.16353 16.1944 8.21537 16.2483 8.26789C16.357 8.37402 16.4576 8.48818 16.5493 8.6094C16.64 8.72965 16.7209 8.85706 16.791 8.99039C16.8515 9.10634 16.9029 9.22678 16.9449 9.35064C16.9268 9.43159 16.9084 9.5122 16.8863 9.59248C16.8606 9.69115 16.8305 9.78916 16.7994 9.88616C16.7683 9.98316 16.7325 10.0795 16.6954 10.1742C16.677 10.2217 16.6573 10.2682 16.6372 10.3146L16.6068 10.3815C16.5967 10.4036 16.585 10.428 16.5763 10.4451L16.486 10.6251L16.6556 10.7304C16.8367 10.8435 17.0055 10.9752 17.1592 11.1234C17.198 11.1599 17.2341 11.1987 17.2709 11.2368C17.3077 11.275 17.3425 11.3154 17.3753 11.3569C17.4426 11.4385 17.5046 11.5243 17.5609 11.6138C17.7307 11.8815 17.8481 12.1792 17.9066 12.4909C17.9157 12.5424 17.9237 12.5939 17.929 12.6451C17.9292 12.6462 17.9292 12.6473 17.929 12.6484C17.7953 12.7028 17.6651 12.7631 17.5384 12.8294C17.361 12.9239 17.1897 13.0294 17.0255 13.1455C16.862 13.2601 16.7057 13.3846 16.5573 13.5181C16.4099 13.6493 16.2723 13.7912 16.1456 13.9425C16.2961 13.8186 16.4555 13.7059 16.6225 13.6054C16.7872 13.5049 16.9579 13.4144 17.1335 13.3344C17.3067 13.2555 17.4847 13.1877 17.6665 13.1314C17.8454 13.0764 18.0279 13.0339 18.2126 13.0043L18.3762 12.9782V12.7685V12.7427L18.3738 12.6936C18.3718 12.6601 18.3688 12.6297 18.3658 12.5982C18.3588 12.5353 18.3494 12.4735 18.3384 12.4122C18.3156 12.2901 18.285 12.1695 18.2467 12.0513C18.1707 11.8154 18.0651 11.5901 17.9324 11.3807C17.8665 11.2758 17.7941 11.1752 17.7154 11.0796C17.6772 11.0311 17.6351 10.986 17.5943 10.9398C17.5535 10.8937 17.5094 10.8502 17.4645 10.808C17.3342 10.6835 17.1943 10.5693 17.0462 10.4665C17.0653 10.4224 17.0836 10.3782 17.1007 10.3327C17.1415 10.2297 17.1791 10.1257 17.2134 10.0206C17.2468 9.9156 17.2803 9.81023 17.3077 9.70319C17.3351 9.59616 17.3612 9.48912 17.3843 9.38108L17.3963 9.32622L17.3789 9.27203C17.3265 9.10442 17.2594 8.94177 17.1783 8.78602C17.0972 8.63171 17.0037 8.48427 16.8987 8.34516C16.7941 8.20678 16.6794 8.07631 16.5556 7.9548C16.4937 7.89426 16.4302 7.83572 16.3633 7.77986C16.3299 7.75177 16.2964 7.72434 16.261 7.69724L16.2486 7.68788C16.2486 7.66145 16.2486 7.63469 16.2469 7.60827C16.2443 7.54338 16.2406 7.47916 16.2346 7.41493C16.2232 7.28682 16.2055 7.16005 16.1824 7.03395C16.1359 6.78136 16.0662 6.53357 15.9744 6.29372C15.9279 6.17363 15.8741 6.05623 15.8176 5.94083C15.7592 5.82611 15.695 5.71446 15.6253 5.60633C15.4509 5.34955 15.2507 5.11137 15.0277 4.89554V4.89554Z" fill="#FA305C"/>
            <path d="M16.3771 9.36103L16.3521 9.31253L16.3771 9.36103Z" fill="white"/>
            <path d="M16.3839 9.37342L16.3772 9.36102L16.3839 9.37342Z" fill="white"/>
            <path d="M16.3872 9.38029C16.3872 9.37788 16.3848 9.37547 16.3838 9.3734L16.3872 9.38029Z" fill="white"/>
            <path d="M16.3962 9.39749L16.3872 9.3801C16.3902 9.38545 16.3929 9.39113 16.3962 9.39749Z" fill="white"/>
            <path d="M15.3577 9.26232C15.4413 9.41842 15.5085 9.58275 15.5583 9.75269C15.6531 9.62326 15.7812 9.52191 15.9289 9.45937C16.0766 9.39683 16.2385 9.37543 16.3974 9.39746C15.9533 9.09876 15.5443 9.19174 15.3577 9.26232Z" fill="white"/>
            <path d="M14.2999 8.99039C13.2358 7.67684 10.8809 7.36008 9.35059 9.02585C9.60809 8.86696 10.0626 8.77598 10.5832 8.93955L10.5889 8.93654C11.4872 8.00866 13.2642 8.41139 14.1728 9.53561C14.2369 9.35964 14.2796 9.17658 14.2999 8.99039Z" fill="white"/>
            <path d="M10.6811 14.1486C10.4897 13.9794 10.2888 13.8215 10.0791 13.6756C9.65761 13.3825 9.20727 13.1333 8.73511 12.9317C8.26039 12.7288 7.76778 12.5705 7.26368 12.4591C6.84402 12.366 6.4184 12.3023 5.9899 12.2684C6.02902 12.1082 6.07283 11.9493 6.12366 11.7921C6.27604 11.3188 6.47569 10.862 6.71959 10.4287C6.78045 10.3208 6.8441 10.2145 6.91054 10.1099C6.94398 10.0581 6.97742 10.0066 7.01086 9.95608L7.06337 9.88115C7.08042 9.85741 7.09982 9.83098 7.11453 9.81158L7.41551 9.42323L6.9286 9.45969L6.70822 9.47575C6.70948 9.47372 6.71093 9.47181 6.71257 9.47006C6.79834 9.35573 6.89045 9.24629 6.98846 9.14226C7.08711 9.03656 7.19111 8.93454 7.29846 8.83553C7.3523 8.78636 7.40681 8.73753 7.46199 8.69003C7.51717 8.64253 7.57502 8.5947 7.6292 8.55322L7.71615 8.48632L7.71213 8.37427C7.71213 8.34517 7.71213 8.30737 7.71213 8.27392C7.71213 8.24047 7.71213 8.20434 7.71514 8.16922C7.71782 8.09898 7.7225 8.02874 7.72785 7.95816C7.73922 7.81745 7.75572 7.67719 7.77734 7.53737C7.81929 7.25965 7.88496 6.98603 7.97364 6.71953C8.0602 6.45788 8.1787 6.20791 8.32645 5.97529C8.44922 5.78292 8.59977 5.60978 8.77323 5.46151C8.91926 5.52016 9.06272 5.58405 9.20362 5.65317C9.3811 5.74029 9.55389 5.83665 9.72129 5.94184C9.88845 6.04634 10.0495 6.16037 10.2035 6.28336C10.2798 6.34457 10.354 6.40812 10.4252 6.47402C10.4609 6.5068 10.4956 6.54025 10.5292 6.57436L10.5784 6.62554L10.6015 6.65063L10.6209 6.67271L10.7132 6.77707C9.94569 5.44679 8.70133 4.96646 8.70133 4.96646L8.60535 5.03804C8.35034 5.23123 8.13187 5.46843 7.96027 5.73847C7.79304 6.00139 7.65914 6.28409 7.56165 6.58005C7.46455 6.87034 7.39272 7.16848 7.34695 7.47114C7.32466 7.62166 7.30693 7.77263 7.29378 7.92404C7.28776 7.99997 7.28274 8.0759 7.27973 8.15216C7.27973 8.1903 7.27706 8.22876 7.27639 8.26723V8.2766C7.24295 8.30402 7.20951 8.33145 7.17774 8.35955C7.11843 8.41039 7.06014 8.46213 7.00284 8.51475C6.88847 8.62045 6.77677 8.73017 6.66842 8.8449C6.55972 8.96099 6.45757 9.08305 6.36244 9.2105C6.26219 9.34251 6.17526 9.48414 6.10293 9.6333L5.94241 9.9708L6.31662 9.94304L6.51025 9.92865C6.45117 10.0234 6.3942 10.1191 6.33936 10.2156C6.08113 10.6745 5.86961 11.1582 5.70799 11.6593C5.62749 11.9107 5.56051 12.1661 5.50734 12.4246L5.45483 12.6859H5.71768C6.21482 12.6766 6.71188 12.7083 7.20382 12.7805C7.69792 12.8533 8.18415 12.972 8.65618 13.1351C9.1312 13.2986 9.58817 13.5104 10.0199 13.7673C10.2367 13.8962 10.4458 14.0375 10.6463 14.1904C10.8488 14.3429 11.0381 14.5121 11.2124 14.6962C11.0509 14.4992 10.8731 14.316 10.6811 14.1486Z" fill="#080C1B"/>
            <path d="M14.9549 8.39365C14.9711 8.57576 14.9474 8.75921 14.8854 8.93118C14.6423 8.52979 13.9968 8.09796 13.9968 8.09796C13.9968 8.09796 14.0383 8.71209 13.8801 9.15094L14.1992 9.45667C14.2476 9.30495 14.2807 9.14873 14.2978 8.99039C14.587 9.15253 14.8189 9.40024 14.9616 9.69951C15.1763 9.44162 15.2328 9.0613 15.2328 9.0613C15.342 9.21677 15.4299 9.3862 15.494 9.56504L15.7783 9.41887C15.5542 8.77196 14.9549 8.39365 14.9549 8.39365Z" fill="white"/>
        </g>
        <path d="M27.188 1.03339L21.4558 4.52553L18.116 8.96471L23.4573 5.69748L27.188 1.03339Z" fill="#FA305C"/>
        <path d="M16.3444 1.18103L12.5733 3.46532L11.1775 5.78911L13.8901 4.23191L16.3444 1.18103Z" fill="white"/>
        <path d="M10.102 18.3796L7.65411 19.5954L5.58887 22.3339L8.89179 20.3184L10.102 18.3796Z" fill="white"/>
        <path d="M11.1599 18.8752L5.42773 22.3674L2.08789 26.8065L7.42927 23.5393L11.1599 18.8752Z" fill="#FA305C"/>
        <path d="M7.95737 13.8559L-0.188759 18.8169L-4.93506 25.1233L2.65565 20.4818L7.95737 13.8559Z" fill="#FA305C"/>
        <path d="M20.0719 -3.79613L13.6257 0.136685L9.86987 5.13602L15.8765 1.45651L20.0719 -3.79613Z" fill="#FA305C"/>
        <path d="M24.0422 12C24.2052 12 24.3378 12.1322 24.3339 12.2952C24.2582 15.4604 22.9679 18.4798 20.7239 20.7239C18.4798 22.9679 15.4603 24.2582 12.2952 24.3339C12.1322 24.3378 12 24.2052 12 24.0422L12 23.1522C12 22.9891 12.1322 22.8574 12.2952 22.8529C15.0676 22.7776 17.7106 21.6434 19.677 19.677C21.6434 17.7106 22.7776 15.0676 22.8529 12.2953C22.8573 12.1322 22.9891 12 23.1522 12L24.0422 12Z" fill="white"/>
        <path d="M12 -0.0421815C12 -0.205246 11.8678 -0.337806 11.7048 -0.333907C8.53964 -0.258225 5.52015 1.03208 3.27612 3.27611C1.03208 5.52015 -0.258223 8.53964 -0.333906 11.7048C-0.337804 11.8678 -0.205244 12 -0.04218 12L0.847802 12C1.01087 12 1.14264 11.8677 1.14707 11.7047C1.22241 8.93235 2.35661 6.28936 4.32298 4.32298C6.28936 2.3566 8.93236 1.22241 11.7047 1.14707C11.8678 1.14264 12 1.01087 12 0.847801L12 -0.0421815Z" fill="white"/>
    </g>
    <defs>
        <clipPath id="clip0">
            <path d="M0 12C0 5.37258 5.37258 0 12 0C18.6274 0 24 5.37258 24 12C24 18.6274 18.6274 24 12 24C5.37258 24 0 18.6274 0 12Z" fill="white"/>
        </clipPath>
        <clipPath id="clip1">
            <rect width="12.9214" height="9.87197" fill="white" transform="translate(5.45483 4.86969)"/>
        </clipPath>
    </defs>
</svg>
