<svg width="166" height="205" viewBox="0 0 166 205" fill="none" xmlns="http://www.w3.org/2000/svg">
<g opacity="0.5" clip-path="url(#clip0)">
<g filter="url(#filter0_d)">
<path opacity="0.6" d="M85.9066 199.191C68.829 199.191 52.7904 197.629 40.6825 194.779C28.5294 191.93 21.8429 188.125 21.8429 184.099C21.8429 180.11 28.439 176.36 40.3662 173.548C52.2935 170.754 68.1964 169.21 85.0934 169.21C102.171 169.21 118.209 170.772 130.317 173.621C142.471 176.471 149.157 180.257 149.157 184.301C149.157 188.29 142.561 192.04 130.589 194.853C118.706 197.647 102.803 199.191 85.9066 199.191ZM85.0934 169.357C68.2416 169.357 52.429 170.901 40.547 173.676C28.7553 176.471 22.2495 180.165 22.2495 184.099C22.2495 188.07 28.8456 191.801 40.8632 194.632C52.926 197.463 68.9193 199.026 85.9066 199.026C102.758 199.026 118.571 197.482 130.453 194.706C142.29 191.93 148.796 188.235 148.796 184.301C148.796 180.331 142.199 176.599 130.182 173.768C118.119 170.919 102.081 169.357 85.0934 169.357Z" fill="url(#paint0_radial)"/>
<path opacity="0.3" d="M85.9066 198.658C69.5067 198.658 54.0555 197.151 42.4445 194.412C30.7432 191.654 24.2826 187.996 24.2826 184.099C24.2826 180.239 30.6528 176.618 42.1734 173.915C53.6489 171.213 68.9193 169.743 85.1386 169.743C101.539 169.743 116.99 171.25 128.601 173.989C140.302 176.746 146.763 180.404 146.763 184.301C146.763 188.162 140.392 191.783 128.872 194.485C117.396 197.169 102.126 198.658 85.9066 198.658ZM85.1386 170.055C69.0097 170.055 53.92 171.526 42.58 174.191C31.2853 176.838 25.0958 180.368 25.0958 184.099C25.0958 187.868 31.4209 191.434 42.8511 194.118C54.3717 196.82 69.6874 198.309 85.9066 198.309C102.035 198.309 117.125 196.838 128.465 194.173C139.76 191.526 145.949 187.996 145.949 184.265C145.949 180.496 139.624 176.93 128.194 174.246C116.673 171.562 101.358 170.055 85.1386 170.055Z" fill="url(#paint1_radial)"/>
<path opacity="0.8" d="M62.3684 189.632C49.4925 186.618 49.4473 181.728 62.2329 178.732C63.4979 178.437 64.8081 178.162 66.2086 177.941L64.9888 177.537C63.4979 177.794 62.0522 178.07 60.6968 178.382C47.098 181.581 47.1883 186.783 60.8324 190C63.6786 190.68 66.9315 191.195 70.3651 191.599L71.2687 191.14C68.061 190.754 65.034 190.257 62.3684 189.632Z" fill="url(#paint2_radial)"/>
<path opacity="0.6" d="M118.164 183.437L120.288 183.401C119.52 181.618 116.222 179.871 110.484 178.493L108.993 178.842C114.324 180.129 117.396 181.765 118.164 183.437Z" fill="url(#paint3_radial)"/>
<path opacity="0.8" d="M108.27 178.676L109.761 178.327C97.6532 175.57 79.175 175.239 65.7117 177.39L66.9315 177.794C79.6268 175.79 96.9303 176.085 108.27 178.676Z" fill="url(#paint4_radial)"/>
<path opacity="0.4" d="M120.333 183.603L118.21 183.64C118.932 185.79 115.77 188.015 108.767 189.651C104.656 190.607 99.7315 191.268 94.5359 191.599L95.078 192.077C100.635 191.71 105.921 191.029 110.258 190C117.758 188.272 121.101 185.919 120.333 183.603Z" fill="url(#paint5_radial)"/>
<path opacity="0.6" d="M72.1271 191.213L71.2235 191.673C78.4521 192.445 86.5843 192.61 94.1744 192.169L93.6322 191.691C86.5392 192.096 78.9491 191.93 72.1271 191.213Z" fill="url(#paint6_radial)"/>
<path opacity="0.4" d="M84.9128 174.724C65.4406 174.761 49.3118 178.07 45.8782 182.408L49.5828 182.555C52.7002 178.621 67.293 175.625 84.9579 175.588L84.9128 174.724ZM49.2666 182.39L46.3751 182.261C50.0798 178.033 65.9376 174.963 84.461 174.871V175.423C67.3833 175.533 52.655 178.419 49.2666 182.39Z" fill="url(#paint7_radial)"/>
<path opacity="0.6" d="M85.8162 174.724V175.607C94.4002 175.643 102.306 176.36 108.541 177.555L110.936 176.875C104.068 175.551 95.3489 174.743 85.8162 174.724ZM108.496 177.371C102.081 176.158 94.4002 175.496 86.2228 175.441V174.89C94.8971 174.945 103.3 175.662 110.122 176.912L108.496 177.371Z" fill="url(#paint8_radial)"/>
<path opacity="0.8" d="M111.659 177.022L109.264 177.702C117.08 179.283 122.05 181.618 122.095 184.228C122.095 185.754 120.423 187.187 117.487 188.419L120.74 188.86C124.038 187.482 125.89 185.901 125.845 184.228C125.8 181.36 120.288 178.768 111.659 177.022ZM120.604 188.676L118.21 188.346C121.056 187.077 122.547 185.662 122.502 184.228C122.456 181.728 117.939 179.357 110.032 177.684L111.704 177.224C120.423 179.007 125.393 181.562 125.438 184.228C125.483 185.772 123.812 187.316 120.604 188.676Z" fill="url(#paint9_radial)"/>
<path d="M97.6531 192.316C93.9033 192.629 89.8824 192.794 85.7259 192.794C85.6807 192.794 85.6355 192.794 85.5904 192.794C65.4406 192.776 48.9503 188.915 48.9051 184.173C48.9051 183.695 49.0406 183.235 49.3569 182.794L45.6522 182.647C45.2908 183.143 45.1101 183.658 45.1553 184.191C45.2456 189.412 63.3624 193.676 85.6355 193.695C85.6807 193.695 85.7259 193.695 85.7711 193.695C90.3793 193.695 94.852 193.511 98.9633 193.162L97.6531 192.316ZM85.6355 193.511C63.6334 193.493 45.6522 189.301 45.5619 184.154C45.5619 183.713 45.6974 183.254 45.9685 182.794L48.8599 182.923C48.634 183.346 48.4985 183.75 48.4985 184.173C48.5437 189.007 65.2147 192.941 85.5904 192.96H85.7259C89.7468 192.96 93.6774 192.812 97.4724 192.5L98.2856 193.033C94.2195 193.346 90.0179 193.511 85.7259 193.511H85.6355Z" fill="url(#paint10_radial)"/>
<path opacity="0.6" d="M116.99 188.603C112.788 190.257 106.282 191.544 98.5566 192.243L99.8668 193.07C108.451 192.316 115.634 190.882 120.288 189.044L116.99 188.603ZM99.1891 192.353C106.598 191.673 112.924 190.404 117.08 188.805L119.474 189.136C114.911 190.846 108.044 192.169 100.002 192.904L99.1891 192.353Z" fill="url(#paint11_radial)"/>
<path opacity="0.2" d="M101.358 173.732L104.791 171.158C103.933 171.085 103.075 171.011 102.216 170.937L98.647 173.511C99.5506 173.566 100.454 173.64 101.358 173.732ZM58.7089 174.963L51.8417 172.794C51.0736 172.923 50.3508 173.051 49.6279 173.18L56.3596 175.368C57.1276 175.221 57.8956 175.092 58.7089 174.963ZM105.966 174.173L110.529 171.71C109.716 171.618 108.903 171.526 108.044 171.434L103.346 173.897C104.249 173.971 105.108 174.081 105.966 174.173ZM122.908 177.408C123.495 177.592 124.083 177.776 124.625 177.96L133.841 176.36C133.299 176.176 132.757 176.011 132.215 175.846L122.908 177.408ZM119.655 176.526C120.333 176.691 120.965 176.857 121.598 177.022L130.046 175.221C129.459 175.055 128.826 174.89 128.194 174.743L119.655 176.526ZM123.721 173.732L115.996 175.717C116.719 175.864 117.441 176.011 118.119 176.176L125.754 174.173C125.122 174.007 124.444 173.879 123.721 173.732ZM72.0818 173.493L68.4223 170.919C67.5639 170.974 66.7055 171.066 65.8471 171.121L69.3711 173.695C70.2747 173.621 71.1782 173.548 72.0818 173.493ZM137.094 177.592C136.642 177.408 136.191 177.224 135.694 177.04L125.754 178.364C126.251 178.548 126.748 178.75 127.245 178.952L137.094 177.592ZM67.3832 173.86L62.6394 171.397C61.781 171.471 60.9678 171.581 60.1546 171.673L64.808 174.154C65.6664 174.044 66.5248 173.952 67.3832 173.86ZM96.6139 173.382L98.9181 170.735C98.0145 170.68 97.1561 170.625 96.2525 170.588L93.8129 173.235C94.7616 173.272 95.6652 173.327 96.6139 173.382ZM62.9105 174.357L57.0824 172.022C56.2692 172.132 55.5012 172.243 54.7331 172.353L60.4708 174.706C61.284 174.596 62.0973 174.467 62.9105 174.357ZM91.7346 173.162L92.8189 170.478C91.9153 170.441 91.0118 170.423 90.1082 170.404L88.8883 173.088C89.8371 173.107 90.7859 173.143 91.7346 173.162ZM81.8405 173.088L80.5303 170.404C79.6267 170.423 78.7231 170.441 77.8195 170.478L78.9942 173.162C79.9429 173.125 80.8917 173.107 81.8405 173.088ZM76.9159 173.235L74.4311 170.588C73.5275 170.625 72.6691 170.68 71.7656 170.735L74.1149 173.382C75.0184 173.327 75.9672 173.272 76.9159 173.235ZM118.842 172.831L112.065 175C112.833 175.129 113.646 175.257 114.369 175.404L121.056 173.217C120.333 173.088 119.61 172.96 118.842 172.831ZM132.893 184.559H144.368C144.368 184.338 144.368 184.136 144.368 183.915L132.893 183.897C132.893 184.118 132.893 184.338 132.893 184.559ZM128.284 189.062L138.811 190.147C139.218 189.945 139.624 189.761 139.94 189.559L129.459 188.437C129.098 188.658 128.691 188.86 128.284 189.062ZM125.89 190.073L135.874 191.415C136.371 191.232 136.823 191.048 137.275 190.864L127.336 189.485C126.884 189.706 126.387 189.89 125.89 190.073ZM123.089 191.029L132.441 192.61C132.983 192.445 133.525 192.261 134.067 192.096L124.806 190.496C124.263 190.68 123.676 190.864 123.089 191.029ZM84.2349 195.312L84.3253 198.015C85.2289 198.015 86.1324 198.015 87.0812 198.015L87.1264 195.312C86.1324 195.331 85.1837 195.331 84.2349 195.312ZM38.1525 183.823H26.6318C26.6318 184.044 26.6318 184.246 26.6318 184.467L38.1525 184.485C38.1073 184.265 38.1073 184.044 38.1525 183.823ZM86.8101 173.07L86.6746 170.368C85.771 170.368 84.8674 170.368 83.9187 170.368L83.8735 173.07C84.8674 173.051 85.8162 173.051 86.8101 173.07ZM132.125 182.243L143.374 181.673C143.193 181.471 142.967 181.25 142.742 181.048L131.492 181.581C131.718 181.801 131.989 182.022 132.125 182.243ZM132.757 183.401L144.187 183.107C144.097 182.886 144.007 182.684 143.871 182.463L132.441 182.721C132.576 182.96 132.712 183.18 132.757 183.401ZM129.369 180L139.805 178.897C139.444 178.695 139.037 178.511 138.63 178.309L128.104 179.375C128.555 179.596 129.007 179.798 129.369 180ZM130.995 181.103L141.928 180.257C141.657 180.055 141.341 179.853 141.025 179.651L130.092 180.46C130.408 180.68 130.724 180.882 130.995 181.103ZM131.582 186.875L142.832 187.426C143.058 187.224 143.284 187.004 143.464 186.801L132.215 186.213C132.034 186.434 131.808 186.654 131.582 186.875ZM132.486 185.735L143.916 186.011C144.052 185.79 144.142 185.588 144.232 185.368L132.802 185.055C132.712 185.276 132.622 185.496 132.486 185.735ZM130.182 187.978L141.16 188.805C141.477 188.603 141.793 188.401 142.064 188.198L131.131 187.335C130.814 187.555 130.498 187.776 130.182 187.978ZM113.601 172.077L107.818 174.393C108.677 174.504 109.49 174.614 110.303 174.743L115.951 172.408C115.182 172.298 114.414 172.169 113.601 172.077ZM52.8356 192.206L45.2455 194.21C45.9232 194.357 46.6009 194.504 47.2786 194.651L55.0042 192.665C54.2361 192.518 53.5585 192.371 52.8356 192.206ZM89.1594 195.294L90.4696 197.978C91.3732 197.96 92.2768 197.941 93.1803 197.904L92.0057 195.221C91.1021 195.257 90.1534 195.294 89.1594 195.294ZM69.6421 194.669L66.2085 197.243C67.0669 197.316 67.9254 197.39 68.7837 197.463L72.3529 194.908C71.4493 194.816 70.5457 194.743 69.6421 194.669ZM79.2653 195.221L78.181 197.904C79.0845 197.941 79.9881 197.96 80.8917 197.978L82.1115 195.294C81.1628 195.276 80.214 195.257 79.2653 195.221ZM56.6306 192.978L49.9441 195.165C50.667 195.294 51.3899 195.423 52.1579 195.551L58.9347 193.382C58.1667 193.254 57.3535 193.125 56.6306 192.978ZM60.6967 193.64L55.0494 195.974C55.8174 196.085 56.6306 196.195 57.3987 196.305L63.1816 193.989C62.3232 193.879 61.5099 193.768 60.6967 193.64ZM65.0339 194.21L60.4708 196.673C61.284 196.765 62.0973 196.857 62.9557 196.948L67.6543 194.485C66.7959 194.412 65.9375 194.301 65.0339 194.21ZM74.3859 195L72.0818 197.647C72.9854 197.702 73.8438 197.757 74.7474 197.794L77.187 195.147C76.2834 195.11 75.3347 195.055 74.3859 195ZM116.267 192.721L124.038 194.724C124.715 194.577 125.393 194.448 126.071 194.301L118.39 192.279C117.667 192.426 116.99 192.573 116.267 192.721ZM112.336 193.419L119.158 195.588C119.926 195.46 120.649 195.331 121.372 195.202L114.64 193.015C113.872 193.162 113.104 193.29 112.336 193.419ZM94.0839 195.165L96.5688 197.812C97.4723 197.776 98.3307 197.721 99.2343 197.665L96.885 195.018C95.9814 195.073 95.0327 195.129 94.0839 195.165ZM119.836 191.912L128.42 193.713C129.052 193.548 129.64 193.401 130.272 193.235L121.779 191.415C121.146 191.581 120.514 191.746 119.836 191.912ZM108.089 194.026L113.917 196.36C114.731 196.25 115.499 196.14 116.267 196.029L110.574 193.676C109.761 193.805 108.948 193.915 108.089 194.026ZM98.9181 194.908L102.578 197.482C103.436 197.426 104.294 197.335 105.153 197.279L101.629 194.706C100.77 194.761 99.8668 194.835 98.9181 194.908ZM103.617 194.522L108.36 196.985C109.219 196.912 110.032 196.801 110.845 196.71L106.192 194.228C105.379 194.338 104.52 194.43 103.617 194.522ZM38.8753 186.14L27.6258 186.71C27.8065 186.912 28.0324 187.132 28.2583 187.335L39.5078 186.801C39.2819 186.581 39.056 186.36 38.8753 186.14ZM40.8632 180.404L29.8847 179.577C29.5685 179.779 29.2522 179.982 28.9811 180.184L39.9144 181.048C40.1855 180.827 40.5469 180.607 40.8632 180.404ZM39.4175 181.507L28.1679 180.956C27.942 181.158 27.7161 181.379 27.5806 181.581L38.8301 182.169C38.9657 181.948 39.1916 181.728 39.4175 181.507ZM42.7607 179.32L32.234 178.235C31.8274 178.437 31.4208 178.621 31.1045 178.823L41.5861 179.945C41.9023 179.724 42.3089 179.522 42.7607 179.32ZM47.9111 177.353L38.5591 175.772C38.0169 175.937 37.4748 176.121 36.9326 176.287L46.2395 177.886C46.7816 177.702 47.3238 177.537 47.9111 177.353ZM45.11 178.309L35.1255 176.967C34.6285 177.151 34.1767 177.335 33.7249 177.518L43.6643 178.897C44.1161 178.695 44.613 178.493 45.11 178.309ZM40.9535 193.18C41.5409 193.346 42.1734 193.511 42.8059 193.658L51.3447 191.875C50.667 191.71 50.0345 191.544 49.402 191.379L40.9535 193.18ZM38.5139 182.665L27.0836 182.39C26.9481 182.61 26.8577 182.812 26.7674 183.033L38.1976 183.346C38.288 183.107 38.4235 182.886 38.5139 182.665ZM51.164 176.471L42.58 174.669C41.9475 174.835 41.3602 174.982 40.7277 175.147L49.2213 176.967C49.8538 176.801 50.4863 176.636 51.164 176.471ZM38.2428 184.982L26.8126 185.276C26.9029 185.496 26.9933 185.698 27.1288 185.919L38.5591 185.662C38.4235 185.441 38.3332 185.202 38.2428 184.982ZM33.9056 190.79C34.3574 190.974 34.8092 191.158 35.3062 191.342L45.2907 190.018C44.7938 189.835 44.2968 189.632 43.7998 189.43L33.9056 190.79ZM37.1585 192.022C37.7007 192.206 38.2428 192.371 38.785 192.537L48.0918 190.974C47.5045 190.79 46.9172 190.607 46.375 190.423L37.1585 192.022ZM41.6764 188.382L31.2401 189.485C31.6015 189.687 32.0081 189.871 32.4147 190.073L42.9414 188.989C42.4444 188.787 42.0378 188.585 41.6764 188.382ZM40.0048 187.279L29.0715 188.125C29.3426 188.327 29.6588 188.529 29.9751 188.732L40.9084 187.923C40.6373 187.702 40.2759 187.5 40.0048 187.279ZM54.7783 175.68L47.0075 173.676C46.3298 173.823 45.6522 173.952 44.9745 174.099L52.6549 176.121C53.3326 175.974 54.0554 175.809 54.7783 175.68Z" fill="url(#paint12_radial)"/>
<path opacity="0.5" d="M122.908 177.408C123.495 177.592 124.083 177.776 124.625 177.96L133.841 176.36C133.299 176.176 132.757 176.011 132.215 175.846L122.908 177.408ZM62.9105 174.357L57.0824 172.022C56.2692 172.132 55.5012 172.243 54.7331 172.353L60.4708 174.706C61.2841 174.596 62.0973 174.467 62.9105 174.357ZM91.7346 173.162L92.8189 170.478C91.9154 170.441 91.0118 170.423 90.1082 170.404L88.8884 173.088C89.8371 173.107 90.7859 173.143 91.7346 173.162ZM81.8405 173.088L80.5303 170.404C79.6267 170.423 78.7231 170.441 77.8195 170.478L78.9942 173.162C79.9429 173.125 80.8917 173.107 81.8405 173.088ZM118.842 172.831L112.065 175C112.833 175.129 113.646 175.257 114.369 175.404L121.056 173.217C120.333 173.088 119.61 172.96 118.842 172.831ZM123.089 191.029L132.441 192.61C132.983 192.445 133.525 192.261 134.067 192.096L124.806 190.496C124.263 190.68 123.676 190.864 123.089 191.029ZM84.2349 195.313L84.3253 198.015C85.2289 198.015 86.1324 198.015 87.0812 198.015L87.1264 195.313C86.1324 195.331 85.1837 195.331 84.2349 195.313ZM38.1525 183.824H26.6318C26.6318 184.044 26.6318 184.246 26.6318 184.467L38.1525 184.485C38.1073 184.265 38.1073 184.044 38.1525 183.824ZM132.125 182.243L143.374 181.673C143.193 181.471 142.968 181.25 142.742 181.048L131.492 181.581C131.718 181.801 131.989 182.022 132.125 182.243ZM131.582 186.875L142.832 187.426C143.058 187.224 143.284 187.004 143.464 186.801L132.215 186.213C132.034 186.434 131.808 186.654 131.582 186.875ZM65.0339 194.21L60.4708 196.673C61.2841 196.765 62.0973 196.857 62.9557 196.949L67.6543 194.485C66.7959 194.412 65.9375 194.301 65.0339 194.21ZM108.089 194.026L113.917 196.36C114.731 196.25 115.499 196.14 116.267 196.029L110.574 193.676C109.761 193.805 108.948 193.915 108.089 194.026ZM38.8753 186.14L27.6258 186.71C27.8065 186.912 28.0324 187.132 28.2583 187.335L39.5078 186.801C39.2819 186.581 39.056 186.36 38.8753 186.14ZM47.9111 177.353L38.5591 175.772C38.0169 175.938 37.4748 176.121 36.9326 176.287L46.2395 177.886C46.7816 177.702 47.3238 177.537 47.9111 177.353ZM37.1585 192.022C37.7007 192.206 38.2428 192.371 38.785 192.537L48.0918 190.974C47.5045 190.79 46.9172 190.607 46.375 190.423L37.1585 192.022Z" fill="url(#paint13_radial)"/>
<path opacity="0.3" d="M58.7089 174.963L51.8418 172.794C51.0737 172.923 50.3509 173.051 49.628 173.18L56.3596 175.368C57.1277 175.221 57.8957 175.092 58.7089 174.963ZM105.966 174.173L110.529 171.71C109.716 171.618 108.903 171.526 108.044 171.434L103.346 173.897C104.249 173.971 105.108 174.081 105.966 174.173ZM123.721 173.732L115.996 175.717C116.719 175.864 117.442 176.011 118.119 176.176L125.754 174.173C125.122 174.007 124.444 173.879 123.721 173.732ZM67.3833 173.86L62.6395 171.397C61.7811 171.471 60.9679 171.581 60.1547 171.673L64.8081 174.154C65.6665 174.044 66.5249 173.952 67.3833 173.86ZM96.614 173.382L98.9182 170.735C98.0146 170.68 97.1562 170.625 96.2526 170.588L93.813 173.235C94.7617 173.272 95.6653 173.327 96.614 173.382ZM125.89 190.074L135.875 191.415C136.371 191.232 136.823 191.048 137.275 190.864L127.336 189.485C126.884 189.706 126.387 189.89 125.89 190.074ZM132.757 183.401L144.187 183.107C144.097 182.886 144.007 182.684 143.871 182.463L132.441 182.721C132.576 182.96 132.712 183.18 132.757 183.401ZM129.369 180L139.805 178.897C139.444 178.695 139.037 178.511 138.63 178.309L128.104 179.375C128.556 179.596 129.007 179.798 129.369 180ZM130.995 181.103L141.928 180.257C141.657 180.055 141.341 179.853 141.025 179.651L130.092 180.46C130.408 180.68 130.724 180.882 130.995 181.103ZM130.182 187.978L141.16 188.805C141.477 188.603 141.793 188.401 142.064 188.199L131.131 187.335C130.814 187.555 130.498 187.776 130.182 187.978ZM79.2654 195.221L78.1811 197.904C79.0846 197.941 79.9882 197.96 80.8918 197.978L82.1116 195.294C81.1629 195.276 80.2141 195.257 79.2654 195.221ZM56.6307 192.978L49.9442 195.165C50.6671 195.294 51.39 195.423 52.158 195.551L58.9348 193.382C58.1668 193.254 57.3536 193.125 56.6307 192.978ZM74.386 195L72.0819 197.647C72.9855 197.702 73.8439 197.757 74.7475 197.794L77.1871 195.147C76.2835 195.11 75.3348 195.055 74.386 195ZM112.336 193.419L119.158 195.588C119.926 195.46 120.649 195.331 121.372 195.202L114.64 193.015C113.872 193.162 113.104 193.29 112.336 193.419ZM98.9182 194.908L102.578 197.482C103.436 197.426 104.294 197.335 105.153 197.279L101.629 194.706C100.771 194.761 99.8669 194.835 98.9182 194.908ZM38.8754 186.14L27.6259 186.71C27.8066 186.912 28.0325 187.132 28.2584 187.335L39.5079 186.801C39.282 186.581 39.0561 186.36 38.8754 186.14ZM39.4176 181.507L28.168 180.956C27.9421 181.158 27.7162 181.379 27.5807 181.581L38.8302 182.169C38.9658 181.949 39.1917 181.728 39.4176 181.507ZM47.9112 177.353L38.5592 175.772C38.017 175.938 37.4749 176.121 36.9327 176.287L46.2396 177.886C46.7817 177.702 47.3239 177.537 47.9112 177.353ZM41.6765 188.382L31.2402 189.485C31.6016 189.688 32.0082 189.871 32.4148 190.074L42.9415 188.989C42.4445 188.787 42.0379 188.585 41.6765 188.382Z" fill="url(#paint14_radial)"/>
<path opacity="0.2" d="M101.945 167.151C101.177 167.114 100.409 167.059 99.5958 167.022L97.879 168.915C98.6922 168.952 99.5055 168.989 100.319 169.044L101.945 167.151ZM98.4212 168.768L99.8669 167.187C100.228 167.206 100.59 167.224 100.906 167.243C101.087 167.261 101.222 167.261 101.403 167.279L100.048 168.842C99.4603 168.824 98.9181 168.805 98.4212 168.768ZM109.445 167.665C108.677 167.61 107.954 167.537 107.186 167.482L104.611 169.32C105.424 169.375 106.192 169.43 107.005 169.504L109.445 167.665ZM105.243 169.191L107.367 167.665C107.728 167.702 108.135 167.721 108.496 167.757C108.632 167.776 108.722 167.776 108.857 167.794L106.779 169.32C106.282 169.265 105.74 169.228 105.243 169.191ZM125.303 171.801L130.046 170.239C129.414 170.129 128.781 170.018 128.104 169.908L123.27 171.452C123.992 171.562 124.625 171.673 125.303 171.801ZM128.194 170.092C128.555 170.147 128.962 170.221 129.324 170.276L125.303 171.599C124.896 171.526 124.489 171.452 124.128 171.397L128.194 170.092ZM94.2647 166.82C93.4515 166.801 92.6834 166.765 91.8702 166.746L90.9667 168.676C91.7799 168.695 92.6383 168.713 93.4515 168.732L94.2647 166.82ZM91.4636 168.529L92.1865 166.93C92.5931 166.949 92.9997 166.949 93.4063 166.967C93.5418 166.967 93.6774 166.967 93.8129 166.985L93.1804 168.585C92.5931 168.548 92.0509 168.548 91.4636 168.529ZM123.586 169.21C122.908 169.118 122.23 169.007 121.508 168.915L117.396 170.57C118.119 170.662 118.842 170.772 119.565 170.864L123.586 169.21ZM118.119 170.515L121.598 169.118C122.005 169.173 122.411 169.228 122.818 169.283L119.429 170.699C118.978 170.625 118.571 170.57 118.119 170.515ZM116.673 168.346C115.951 168.272 115.228 168.18 114.505 168.107L111.162 169.871C111.93 169.945 112.698 170.018 113.466 170.11L116.673 168.346ZM111.839 169.761L114.64 168.29C115.047 168.327 115.454 168.382 115.815 168.419C115.86 168.419 115.905 168.437 115.996 168.437L113.24 169.908C112.788 169.871 112.336 169.816 111.839 169.761ZM79.6267 168.676L78.678 166.746C77.8648 166.765 77.0967 166.783 76.2835 166.82L77.0967 168.732C77.9551 168.713 78.7683 168.695 79.6267 168.676ZM77.1419 166.949C77.5485 166.93 77.9551 166.93 78.3617 166.912L79.1298 168.511C78.5425 168.529 78.0003 168.529 77.4582 168.548L76.7805 166.949C76.8708 166.967 77.0064 166.967 77.1419 166.949ZM53.2423 170.533L49.0858 168.86C48.4081 168.952 47.6853 169.044 47.0076 169.154L51.0737 170.827C51.7965 170.735 52.5194 170.625 53.2423 170.533ZM48.9955 169.062L52.5194 170.478C52.1128 170.533 51.661 170.588 51.2092 170.662L47.7756 169.246C48.1822 169.173 48.5888 169.118 48.9955 169.062ZM59.477 169.835L56.0885 168.07C55.3657 168.143 54.6428 168.235 53.92 168.309L57.218 170.074C57.9861 169.982 58.7089 169.908 59.477 169.835ZM54.688 168.382C55.0946 168.346 55.5012 168.29 55.9078 168.254L58.7541 169.724C58.2571 169.779 57.8053 169.816 57.3084 169.871L54.5073 168.382C54.6428 168.401 54.688 168.382 54.688 168.382ZM47.369 171.397L42.4897 169.853C41.8572 169.963 41.1795 170.074 40.547 170.184L45.336 171.746C46.0136 171.618 46.6913 171.507 47.369 171.397ZM42.4445 170.037L46.601 171.36C46.2395 171.415 45.8329 171.489 45.4263 171.562L41.3602 170.221C41.7216 170.147 42.0831 170.092 42.4445 170.037ZM66.0279 169.283L63.4075 167.445C62.6395 167.5 61.9166 167.574 61.1486 167.629L63.6786 169.467C64.4466 169.393 65.2147 169.338 66.0279 169.283ZM62.0973 167.702C62.4588 167.665 62.8202 167.647 63.1816 167.61L65.3502 169.154C64.8532 169.191 64.3111 169.228 63.8141 169.265L61.7359 167.739C61.8714 167.739 62.007 167.721 62.0973 167.702ZM130.634 172.849L136.055 171.415C135.468 171.287 134.881 171.158 134.248 171.029L128.736 172.445C129.414 172.592 130.001 172.721 130.634 172.849ZM134.293 171.232C134.609 171.305 134.926 171.36 135.287 171.434L130.634 172.665C130.272 172.592 129.956 172.518 129.595 172.445L134.293 171.232ZM72.7596 168.897L70.9524 167.004C70.1844 167.04 69.4163 167.096 68.6031 167.132L70.2747 169.026C71.1331 168.971 71.9463 168.934 72.7596 168.897ZM69.6422 167.224C70.0036 167.206 70.3199 167.187 70.6813 167.169L72.1722 168.75C71.6753 168.768 71.1331 168.805 70.5458 168.824L69.1452 167.243C69.326 167.261 69.4615 167.243 69.6422 167.224ZM86.5391 168.621L86.4939 166.691C85.997 166.691 85.5452 166.691 85.0482 166.691C84.732 166.691 84.4157 166.691 84.0995 166.691L84.0543 168.621C84.4157 168.621 84.732 168.621 85.0934 168.621C85.5904 168.621 86.0422 168.621 86.5391 168.621ZM84.4609 166.857C84.6416 166.857 84.8223 166.857 85.003 166.857C85.3645 166.857 85.7259 166.857 86.0422 166.857L86.0873 168.456C85.7259 168.456 85.4096 168.456 85.0482 168.456C84.8223 168.456 84.6416 168.456 84.4157 168.456L84.4609 166.857ZM41.9475 172.39L36.4357 170.956C35.8484 171.085 35.2611 171.213 34.6737 171.342L40.1404 172.776C40.6825 172.647 41.315 172.518 41.9475 172.39ZM36.3905 171.158L41.1343 172.371C40.7729 172.445 40.4566 172.518 40.0952 172.592L35.3966 171.36C35.758 171.287 36.0743 171.213 36.3905 171.158ZM145.633 190.846L153.133 191.618C153.449 191.452 153.811 191.287 154.127 191.103L146.627 190.294C146.356 190.478 145.995 190.662 145.633 190.846ZM153.449 191.195C153.359 191.25 153.268 191.287 153.133 191.342C153.088 191.379 153.042 191.397 152.952 191.434L146.311 190.754C146.446 190.68 146.627 190.588 146.763 190.496L153.449 191.195ZM148.253 189.338L156.069 189.926C156.341 189.743 156.612 189.577 156.837 189.393L149.022 188.787C148.75 188.952 148.525 189.154 148.253 189.338ZM156.205 189.504C156.16 189.54 156.069 189.577 156.024 189.632C155.979 189.669 155.889 189.706 155.844 189.743L148.886 189.21C149.022 189.118 149.112 189.044 149.247 188.952L156.205 189.504ZM150.151 187.757L158.193 188.143C158.374 187.96 158.599 187.776 158.735 187.592L150.648 187.169C150.467 187.39 150.332 187.574 150.151 187.757ZM150.919 187.371L158.148 187.757C158.103 187.794 158.057 187.831 158.012 187.886C157.967 187.923 157.922 187.96 157.877 187.996L150.648 187.647C150.784 187.537 150.829 187.463 150.919 187.371ZM142.38 192.279L149.519 193.235C149.925 193.07 150.332 192.923 150.738 192.757L143.645 191.783C143.239 191.93 142.832 192.114 142.38 192.279ZM150.015 192.812C149.835 192.886 149.654 192.941 149.519 193.015L149.473 193.033L143.193 192.187C143.419 192.096 143.6 192.022 143.781 191.93L150.015 192.812ZM151.326 186.158L159.503 186.36C159.593 186.176 159.729 185.993 159.774 185.79L151.597 185.57C151.506 185.772 151.416 185.974 151.326 186.158ZM151.913 185.754L159.277 185.956C159.232 186.011 159.232 186.085 159.187 186.14C159.187 186.158 159.187 186.176 159.142 186.195L151.777 186.011C151.823 185.919 151.868 185.846 151.913 185.754ZM134.067 194.871L140.212 196.158C140.754 196.011 141.296 195.882 141.838 195.735L135.784 194.43C135.197 194.577 134.655 194.724 134.067 194.871ZM141.025 195.735C140.754 195.809 140.483 195.882 140.212 195.956L134.926 194.853C135.242 194.779 135.513 194.706 135.784 194.614L141.025 195.735ZM138.54 193.621L145.181 194.743C145.678 194.596 146.13 194.449 146.582 194.283L139.986 193.143C139.534 193.309 139.037 193.474 138.54 193.621ZM145.814 194.338C145.588 194.412 145.362 194.485 145.091 194.559L139.263 193.585C139.534 193.493 139.76 193.419 139.986 193.346L145.814 194.338ZM135.468 174.026L141.477 172.739C140.935 172.592 140.392 172.463 139.85 172.316L133.751 173.585C134.338 173.732 134.926 173.879 135.468 174.026ZM140.709 172.721L135.513 173.842C135.242 173.768 134.926 173.695 134.609 173.603L139.85 172.5C140.166 172.592 140.438 172.647 140.709 172.721ZM151.777 184.54H160C160 184.357 160 184.173 160 183.971L151.777 183.952C151.777 184.136 151.823 184.338 151.777 184.54ZM159.593 184.136C159.593 184.21 159.593 184.301 159.593 184.375H152.184C152.184 184.283 152.184 184.21 152.184 184.118L159.593 184.136ZM143.465 176.71L150.512 175.735C150.106 175.57 149.699 175.404 149.293 175.239L142.2 176.176C142.606 176.36 143.058 176.526 143.465 176.71ZM149.157 175.441L149.247 175.478C149.428 175.533 149.564 175.607 149.744 175.68L143.555 176.526C143.374 176.452 143.148 176.36 142.922 176.268L149.157 175.441ZM139.76 175.312L146.356 174.173C145.904 174.026 145.407 173.86 144.91 173.713L138.269 174.835C138.766 175 139.263 175.165 139.76 175.312ZM145.543 174.136L139.805 175.129C139.579 175.055 139.308 174.963 139.037 174.89L144.82 173.915C145.091 173.989 145.317 174.062 145.543 174.136ZM146.492 178.18L153.991 177.39C153.675 177.224 153.314 177.04 152.952 176.875L145.452 177.647C145.814 177.812 146.175 177.996 146.492 178.18ZM152.997 177.132C153.088 177.187 153.223 177.224 153.314 177.279L146.672 177.978C146.492 177.886 146.356 177.812 146.175 177.721L152.817 177.04C152.862 177.077 152.907 177.114 152.997 177.132ZM151.552 182.904L159.729 182.702C159.639 182.518 159.548 182.335 159.413 182.132L151.235 182.316C151.371 182.518 151.461 182.721 151.552 182.904ZM159.096 182.316L159.142 182.371C159.187 182.426 159.232 182.5 159.232 182.555L151.868 182.739C151.823 182.647 151.777 182.555 151.732 182.482L159.096 182.316ZM148.886 179.706L156.702 179.099C156.476 178.915 156.16 178.75 155.889 178.566L148.118 179.136C148.389 179.338 148.615 179.522 148.886 179.706ZM155.844 178.86C155.889 178.897 155.979 178.952 156.024 178.989L149.067 179.522C148.931 179.43 148.841 179.357 148.705 179.265L155.663 178.75C155.753 178.787 155.798 178.824 155.844 178.86ZM150.558 181.287L158.645 180.882C158.509 180.699 158.238 180.515 158.057 180.331L150.061 180.717C150.241 180.901 150.422 181.103 150.558 181.287ZM157.786 180.515C157.831 180.551 157.877 180.588 157.922 180.643C157.967 180.68 158.012 180.717 158.057 180.754L150.829 181.121C150.738 181.029 150.693 180.956 150.603 180.864L157.786 180.515ZM69.0549 201.232C69.8229 201.268 70.591 201.324 71.4042 201.36L73.121 199.467C72.3078 199.43 71.4945 199.393 70.6813 199.338L69.0549 201.232ZM72.5788 199.614L71.1331 201.195C70.7717 201.176 70.4103 201.158 70.094 201.14C69.9133 201.121 69.7777 201.121 69.597 201.103L70.9524 199.54C71.5397 199.559 72.0819 199.596 72.5788 199.614ZM84.4609 199.761L84.5512 201.691C85.0482 201.691 85.5 201.691 85.997 201.691C86.3132 201.691 86.6295 201.691 86.9457 201.691V199.761C86.5843 199.761 86.2681 199.761 85.9066 199.761C85.4548 199.761 84.9579 199.761 84.4609 199.761ZM86.5391 201.526C86.3584 201.526 86.1777 201.526 85.997 201.526C85.6355 201.526 85.3193 201.526 84.9579 201.526L84.9127 199.926C85.2741 199.926 85.5904 199.926 85.9518 199.926C86.1777 199.926 86.3584 199.926 86.5843 199.926L86.5391 201.526ZM76.7353 201.562C77.5485 201.581 78.3166 201.618 79.1298 201.636L80.0334 199.706C79.2201 199.687 78.3617 199.669 77.5485 199.651L76.7353 201.562ZM79.5364 199.853L78.8135 201.452C78.4069 201.434 78.0003 201.434 77.5937 201.415C77.4582 201.415 77.3678 201.415 77.2323 201.397L77.8648 199.798C78.4069 199.835 78.9491 199.853 79.5364 199.853ZM61.5552 200.735C62.3232 200.79 63.0461 200.864 63.8141 200.919L66.3893 199.081C65.5761 199.026 64.8081 198.971 63.9949 198.897L61.5552 200.735ZM65.802 199.21L63.6786 200.735C63.3172 200.699 62.9106 200.68 62.5491 200.643C62.4588 200.625 62.3232 200.625 62.2329 200.607L64.3111 199.081C64.7629 199.118 65.2599 199.154 65.802 199.21ZM45.6974 196.581L40.9536 198.143C41.5861 198.254 42.2186 198.364 42.8963 198.474L47.7304 196.93C47.0528 196.82 46.3751 196.71 45.6974 196.581ZM42.8511 198.29C42.4897 198.235 42.0831 198.162 41.7217 198.107L45.7426 196.783C46.1492 196.857 46.5558 196.93 46.9172 196.985L42.8511 198.29ZM47.4142 199.173C48.0919 199.265 48.7696 199.375 49.4924 199.467L53.6037 197.812C52.8808 197.721 52.158 197.61 51.4351 197.518L47.4142 199.173ZM52.8808 197.868L49.4021 199.265C48.9955 199.21 48.5888 199.154 48.1822 199.099L51.5707 197.684C52.0224 197.757 52.4291 197.812 52.8808 197.868ZM54.3266 200.037C55.0494 200.11 55.7723 200.202 56.4952 200.276L59.8384 198.511C59.0703 198.437 58.3023 198.364 57.5343 198.272L54.3266 200.037ZM59.1607 198.621L56.3596 200.092C55.953 200.055 55.5464 200 55.1398 199.963C55.0946 199.963 55.0494 199.945 55.0042 199.945L57.7602 198.474C58.2119 198.511 58.6637 198.566 59.1607 198.621ZM111.523 198.566L114.911 200.331C115.634 200.257 116.357 200.165 117.08 200.092L113.782 198.327C113.059 198.401 112.291 198.474 111.523 198.566ZM116.312 200C115.905 200.037 115.499 200.092 115.092 200.129L112.246 198.658C112.743 198.603 113.195 198.566 113.692 198.511L116.493 200C116.402 200 116.357 200 116.312 200ZM117.758 197.849L121.914 199.522C122.592 199.43 123.315 199.338 123.992 199.228L119.926 197.555C119.203 197.665 118.481 197.757 117.758 197.849ZM122.005 199.338L118.481 197.923C118.887 197.868 119.339 197.812 119.791 197.739L123.224 199.154C122.863 199.21 122.456 199.283 122.005 199.338ZM123.631 196.985L128.51 198.529C129.143 198.419 129.821 198.309 130.453 198.199L125.664 196.636C124.986 196.765 124.309 196.875 123.631 196.985ZM128.556 198.364L124.399 197.04C124.76 196.985 125.167 196.912 125.574 196.838L129.64 198.18C129.278 198.235 128.917 198.29 128.556 198.364ZM129.098 195.993L134.609 197.426C135.197 197.298 135.784 197.169 136.371 197.04L130.905 195.607C130.317 195.735 129.73 195.864 129.098 195.993ZM134.655 197.224L129.911 196.011C130.272 195.937 130.589 195.864 130.95 195.79L135.649 197.022C135.287 197.096 134.926 197.169 134.655 197.224ZM40.3663 195.533L34.9448 196.967C35.5321 197.096 36.1195 197.224 36.752 197.353L42.2638 195.937C41.6313 195.809 40.9988 195.662 40.3663 195.533ZM36.7068 197.151C36.3905 197.077 36.0743 197.022 35.7129 196.949L40.3663 195.717C40.7277 195.79 41.044 195.864 41.4054 195.937L36.7068 197.151ZM98.2856 199.504L100.093 201.397C100.861 201.36 101.629 201.305 102.442 201.268L100.77 199.375C99.9121 199.412 99.0989 199.467 98.2856 199.504ZM101.358 201.158C100.996 201.176 100.68 201.195 100.319 201.213L98.8278 199.632C99.3247 199.614 99.8669 199.577 100.454 199.559L101.855 201.14C101.674 201.14 101.539 201.14 101.358 201.158ZM36.9327 173.529L30.7884 172.243C30.2462 172.39 29.7041 172.518 29.1619 172.665L35.2159 173.971C35.8032 173.805 36.3905 173.658 36.9327 173.529ZM30.0203 172.647C30.2914 172.574 30.5625 172.5 30.8335 172.426L36.1195 173.529C35.8032 173.603 35.5321 173.676 35.2611 173.768L30.0203 172.647ZM91.4184 199.706L92.3672 201.636C93.1804 201.618 93.9485 201.599 94.7617 201.562L93.9485 199.651C93.0449 199.669 92.2317 199.687 91.4184 199.706ZM93.8581 201.434C93.4515 201.452 93.0449 201.452 92.6383 201.471L91.8702 199.871C92.4576 199.853 92.9997 199.853 93.5418 199.835L94.2195 201.434C94.1292 201.434 93.9936 201.434 93.8581 201.434ZM105.017 199.118L107.638 200.956C108.406 200.901 109.129 200.827 109.897 200.772L107.367 198.934C106.599 198.989 105.785 199.044 105.017 199.118ZM108.948 200.68C108.586 200.717 108.225 200.735 107.818 200.772L105.65 199.228C106.192 199.191 106.689 199.154 107.186 199.118L109.264 200.643C109.174 200.662 109.038 200.662 108.948 200.68ZM20.8942 180.625L12.8523 180.221C12.6716 180.404 12.4457 180.588 12.3102 180.772L20.3972 181.195C20.5327 181.011 20.7135 180.809 20.8942 180.625ZM20.081 181.011L12.8523 180.625C12.8975 180.588 12.9427 180.551 12.9879 180.515C13.0331 180.478 13.0782 180.441 13.1234 180.404L20.352 180.754C20.2617 180.846 20.1713 180.937 20.081 181.011ZM22.7917 179.062L14.9757 178.474C14.7047 178.64 14.4336 178.824 14.2077 179.007L22.0237 179.614C22.2495 179.43 22.5206 179.246 22.7917 179.062ZM14.795 178.879C14.8402 178.842 14.9306 178.805 14.9757 178.75C15.0661 178.732 15.1113 178.695 15.1565 178.64L22.114 179.173C21.9785 179.265 21.8881 179.338 21.7526 179.43L14.795 178.879ZM19.6743 182.224L11.5421 182.022C11.4518 182.206 11.3163 182.39 11.2711 182.592L19.4485 182.812C19.4936 182.61 19.584 182.426 19.6743 182.224ZM19.087 182.629L11.7229 182.445C11.768 182.39 11.768 182.316 11.8132 182.261C11.8132 182.243 11.8132 182.224 11.8584 182.206L19.2226 182.39C19.1774 182.463 19.1322 182.555 19.087 182.629ZM28.6198 176.103L21.4815 175.147C21.0749 175.312 20.6683 175.46 20.2617 175.625L27.3548 176.618C27.7614 176.452 28.168 176.287 28.6198 176.103ZM21.0297 175.57C21.1653 175.515 21.346 175.441 21.4815 175.386L21.617 175.349L27.8969 176.195C27.671 176.287 27.4903 176.36 27.3096 176.452L21.0297 175.57ZM32.5052 174.761L25.8639 173.64C25.3669 173.787 24.9151 173.934 24.4633 174.099L31.0594 175.239C31.5112 175.074 32.0082 174.926 32.5052 174.761ZM25.1862 174.044C25.4121 173.971 25.638 173.897 25.909 173.824L31.7371 174.798C31.466 174.89 31.2401 174.963 31.0143 175.037L25.1862 174.044ZM19.2226 183.86H11C11 184.044 11 184.228 11 184.43L19.2226 184.449C19.2226 184.246 19.2226 184.044 19.2226 183.86ZM11.4066 184.265C11.4066 184.191 11.4066 184.099 11.4066 184.026H18.8159C18.8159 184.118 18.8159 184.191 18.8159 184.283L11.4066 184.265ZM25.3669 177.555L17.8672 176.783C17.5509 176.949 17.1895 177.114 16.8733 177.298L24.373 178.088C24.6892 177.904 25.0055 177.721 25.3669 177.555ZM17.5509 177.187C17.6413 177.132 17.7317 177.096 17.8672 177.04C17.9124 177.022 17.9576 176.985 18.0479 176.949L24.6892 177.629C24.5537 177.702 24.373 177.794 24.2374 177.886L17.5509 177.187ZM35.5321 194.357L29.5233 195.643C30.0655 195.79 30.6076 195.919 31.1498 196.066L37.2489 194.798C36.6616 194.651 36.1195 194.504 35.5321 194.357ZM30.2914 195.662L35.487 194.54C35.758 194.614 36.0743 194.687 36.3905 194.779L31.1498 195.882C30.8787 195.809 30.5625 195.735 30.2914 195.662ZM27.5807 191.691L20.4876 192.647C20.8942 192.812 21.3008 192.978 21.7074 193.143L28.8005 192.206C28.3939 192.022 27.9873 191.857 27.5807 191.691ZM21.8429 192.96L21.7978 192.941C21.617 192.868 21.4363 192.794 21.2556 192.739L27.4451 191.893C27.6258 191.967 27.8517 192.059 28.0776 192.151L21.8429 192.96ZM24.5085 190.221L17.0088 191.011C17.325 191.176 17.6865 191.36 18.0479 191.526L25.5476 190.754C25.1862 190.57 24.8247 190.386 24.5085 190.221ZM18.0027 191.232C17.9124 191.176 17.822 191.14 17.7317 191.085L24.373 190.386C24.5537 190.478 24.6892 190.551 24.8699 190.643L18.2286 191.342C18.1383 191.305 18.0931 191.268 18.0027 191.232ZM31.2401 193.07L24.644 194.21C25.0958 194.357 25.5928 194.522 26.0898 194.669L32.7311 193.548C32.2341 193.382 31.7371 193.235 31.2401 193.07ZM25.4572 194.246L31.195 193.254C31.4209 193.327 31.6919 193.419 31.963 193.493L26.1801 194.467C25.9542 194.393 25.6831 194.32 25.4572 194.246ZM22.114 188.676L14.2981 189.283C14.524 189.467 14.8402 189.632 15.1113 189.816L22.8821 189.246C22.6562 189.062 22.3851 188.86 22.114 188.676ZM15.1565 189.522C15.0661 189.485 15.0209 189.43 14.9757 189.393L21.9333 188.86C22.0688 188.952 22.1592 189.026 22.2947 189.118L15.3372 189.632C15.2468 189.596 15.2016 189.559 15.1565 189.522ZM20.4424 187.096L12.3554 187.5C12.4909 187.684 12.762 187.868 12.9427 188.051L20.9394 187.665C20.8038 187.482 20.6231 187.279 20.4424 187.096ZM13.2138 187.886C13.1686 187.849 13.1234 187.812 13.0782 187.776C13.0331 187.739 12.9879 187.702 12.9427 187.665L20.1713 187.298C20.2617 187.39 20.3069 187.463 20.3972 187.555L13.2138 187.886ZM19.4936 185.478L11.3163 185.68C11.4066 185.864 11.497 186.048 11.6325 186.25L19.8099 186.066C19.6292 185.864 19.5388 185.68 19.4936 185.478ZM11.9036 186.085C11.9036 186.066 11.8584 186.048 11.8584 186.029C11.8132 185.974 11.768 185.919 11.768 185.846L19.1322 185.662C19.1774 185.754 19.2226 185.827 19.2677 185.919L11.9036 186.085Z" fill="url(#paint15_radial)"/>
<path opacity="0.2" d="M94.2648 166.82C93.4515 166.801 92.6835 166.765 91.8703 166.746L90.9667 168.676C91.7799 168.695 92.6383 168.713 93.4515 168.732L94.2648 166.82ZM91.4637 168.529L92.1865 166.93C92.5931 166.949 92.9997 166.949 93.4063 166.967C93.5419 166.967 93.6774 166.967 93.813 166.985L93.1805 168.585C92.5931 168.548 92.051 168.548 91.4637 168.529ZM123.586 169.21C122.908 169.118 122.23 169.007 121.508 168.915L117.396 170.57C118.119 170.662 118.842 170.772 119.565 170.864L123.586 169.21ZM118.119 170.515L121.598 169.118C122.005 169.173 122.411 169.228 122.818 169.283L119.429 170.699C118.978 170.625 118.571 170.57 118.119 170.515ZM116.673 168.346C115.951 168.272 115.228 168.18 114.505 168.107L111.162 169.871C111.93 169.945 112.698 170.018 113.466 170.11L116.673 168.346ZM111.839 169.761L114.64 168.29C115.047 168.327 115.454 168.382 115.815 168.419C115.86 168.419 115.905 168.438 115.996 168.438L113.24 169.908C112.788 169.871 112.336 169.816 111.839 169.761ZM53.2423 170.533L49.0859 168.86C48.4082 168.952 47.6853 169.044 47.0076 169.154L51.0737 170.827C51.7966 170.735 52.5195 170.625 53.2423 170.533ZM48.9955 169.063L52.5195 170.478C52.1128 170.533 51.6611 170.588 51.2093 170.662L47.7757 169.246C48.1823 169.173 48.5889 169.118 48.9955 169.063ZM72.7596 168.897L70.9524 167.004C70.1844 167.04 69.4164 167.096 68.6031 167.132L70.2748 169.026C71.1332 168.971 71.9464 168.934 72.7596 168.897ZM69.6423 167.224C70.0037 167.206 70.3199 167.188 70.6814 167.169L72.1723 168.75C71.6753 168.768 71.1332 168.805 70.5458 168.824L69.1453 167.243C69.326 167.261 69.4615 167.243 69.6423 167.224ZM41.9476 172.39L36.4358 170.956C35.8484 171.085 35.2611 171.213 34.6738 171.342L40.1404 172.776C40.6826 172.647 41.3151 172.518 41.9476 172.39ZM36.3906 171.158L41.1344 172.371C40.7729 172.445 40.4567 172.518 40.0953 172.592L35.3967 171.36C35.7581 171.287 36.0743 171.213 36.3906 171.158ZM148.254 189.338L156.069 189.926C156.341 189.743 156.612 189.577 156.838 189.393L149.022 188.787C148.751 188.952 148.525 189.154 148.254 189.338ZM156.205 189.504C156.16 189.54 156.069 189.577 156.024 189.632C155.979 189.669 155.889 189.706 155.844 189.743L148.886 189.21C149.022 189.118 149.112 189.044 149.247 188.952L156.205 189.504ZM151.326 186.158L159.503 186.36C159.593 186.176 159.729 185.993 159.774 185.79L151.597 185.57C151.506 185.772 151.416 185.974 151.326 186.158ZM151.913 185.754L159.277 185.956C159.232 186.011 159.232 186.085 159.187 186.14C159.187 186.158 159.187 186.176 159.142 186.195L151.777 186.011C151.823 185.919 151.868 185.846 151.913 185.754ZM134.067 194.871L140.212 196.158C140.754 196.011 141.296 195.882 141.838 195.735L135.784 194.43C135.197 194.577 134.655 194.724 134.067 194.871ZM141.025 195.735C140.754 195.809 140.483 195.882 140.212 195.956L134.926 194.853C135.242 194.779 135.513 194.706 135.784 194.614L141.025 195.735ZM138.54 193.621L145.181 194.743C145.678 194.596 146.13 194.449 146.582 194.283L139.986 193.143C139.534 193.309 139.037 193.474 138.54 193.621ZM145.814 194.338C145.588 194.412 145.362 194.485 145.091 194.559L139.263 193.585C139.534 193.493 139.76 193.419 139.986 193.346L145.814 194.338ZM143.465 176.71L150.512 175.735C150.106 175.57 149.699 175.404 149.293 175.239L142.2 176.176C142.606 176.36 143.058 176.526 143.465 176.71ZM149.157 175.441L149.247 175.478C149.428 175.533 149.564 175.607 149.744 175.68L143.555 176.526C143.374 176.452 143.148 176.36 142.922 176.268L149.157 175.441ZM150.558 181.287L158.645 180.882C158.509 180.699 158.238 180.515 158.057 180.331L150.061 180.717C150.241 180.901 150.422 181.103 150.558 181.287ZM157.786 180.515C157.831 180.551 157.877 180.588 157.922 180.643C157.967 180.68 158.012 180.717 158.057 180.754L150.829 181.121C150.738 181.029 150.693 180.956 150.603 180.864L157.786 180.515ZM69.0549 201.232C69.823 201.268 70.591 201.324 71.4042 201.36L73.121 199.467C72.3078 199.43 71.4946 199.393 70.6814 199.338L69.0549 201.232ZM72.5789 199.614L71.1332 201.195C70.7717 201.176 70.4103 201.158 70.094 201.14C69.9133 201.121 69.7778 201.121 69.5971 201.103L70.9524 199.54C71.5398 199.559 72.0819 199.596 72.5789 199.614ZM54.3266 200.037C55.0495 200.11 55.7723 200.202 56.4952 200.276L59.8384 198.511C59.0704 198.438 58.3024 198.364 57.5343 198.272L54.3266 200.037ZM59.1608 198.621L56.3597 200.092C55.9531 200.055 55.5464 200 55.1398 199.963C55.0947 199.963 55.0495 199.945 55.0043 199.945L57.7602 198.474C58.212 198.511 58.6638 198.566 59.1608 198.621ZM117.758 197.849L121.914 199.522C122.592 199.43 123.315 199.338 123.992 199.228L119.926 197.555C119.204 197.665 118.481 197.757 117.758 197.849ZM122.005 199.338L118.481 197.923C118.887 197.868 119.339 197.813 119.791 197.739L123.224 199.154C122.863 199.21 122.456 199.283 122.005 199.338ZM40.3663 195.533L34.9449 196.967C35.5322 197.096 36.1195 197.224 36.752 197.353L42.2638 195.938C41.6313 195.809 40.9988 195.662 40.3663 195.533ZM36.7068 197.151C36.3906 197.077 36.0743 197.022 35.7129 196.949L40.3663 195.717C40.7278 195.79 41.044 195.864 41.4054 195.938L36.7068 197.151ZM98.2857 199.504L100.093 201.397C100.861 201.36 101.629 201.305 102.442 201.268L100.771 199.375C99.9121 199.412 99.0989 199.467 98.2857 199.504ZM101.358 201.158C100.996 201.176 100.68 201.195 100.319 201.213L98.8278 199.632C99.3248 199.614 99.8669 199.577 100.454 199.559L101.855 201.14C101.674 201.14 101.539 201.14 101.358 201.158ZM91.4185 199.706L92.3672 201.636C93.1805 201.618 93.9485 201.599 94.7617 201.563L93.9485 199.651C93.0449 199.669 92.2317 199.688 91.4185 199.706ZM93.8581 201.434C93.4515 201.452 93.0449 201.452 92.6383 201.471L91.8703 199.871C92.4576 199.853 92.9997 199.853 93.5419 199.835L94.2196 201.434C94.1292 201.434 93.9937 201.434 93.8581 201.434ZM19.6744 182.224L11.5422 182.022C11.4518 182.206 11.3163 182.39 11.2711 182.592L19.4485 182.813C19.4937 182.61 19.584 182.426 19.6744 182.224ZM19.0871 182.629L11.7229 182.445C11.7681 182.39 11.7681 182.316 11.8133 182.261C11.8133 182.243 11.8133 182.224 11.8584 182.206L19.2226 182.39C19.1774 182.463 19.1322 182.555 19.0871 182.629ZM28.6198 176.103L21.4815 175.147C21.0749 175.313 20.6683 175.46 20.2617 175.625L27.3548 176.618C27.7614 176.452 28.168 176.287 28.6198 176.103ZM21.0298 175.57C21.1653 175.515 21.346 175.441 21.4815 175.386L21.6171 175.349L27.897 176.195C27.6711 176.287 27.4903 176.36 27.3096 176.452L21.0298 175.57ZM25.3669 177.555L17.8672 176.783C17.551 176.949 17.1896 177.114 16.8733 177.298L24.373 178.088C24.6893 177.904 25.0055 177.721 25.3669 177.555ZM17.551 177.188C17.6413 177.132 17.7317 177.096 17.8672 177.04C17.9124 177.022 17.9576 176.985 18.048 176.949L24.6893 177.629C24.5537 177.702 24.373 177.794 24.2375 177.886L17.551 177.188ZM27.5807 191.691L20.4876 192.647C20.8942 192.813 21.3008 192.978 21.7074 193.143L28.8005 192.206C28.3939 192.022 27.9873 191.857 27.5807 191.691ZM21.843 192.96L21.7978 192.941C21.6171 192.868 21.4364 192.794 21.2557 192.739L27.4452 191.893C27.6259 191.967 27.8518 192.059 28.0777 192.151L21.843 192.96ZM22.1141 188.676L14.2981 189.283C14.524 189.467 14.8403 189.632 15.1113 189.816L22.8821 189.246C22.6562 189.063 22.3851 188.86 22.1141 188.676ZM15.1565 189.522C15.0661 189.485 15.021 189.43 14.9758 189.393L21.9333 188.86C22.0689 188.952 22.1592 189.026 22.2948 189.118L15.3372 189.632C15.2469 189.596 15.2017 189.559 15.1565 189.522ZM20.4424 187.096L12.3554 187.5C12.4909 187.684 12.762 187.868 12.9427 188.051L20.9394 187.665C20.8039 187.482 20.6231 187.279 20.4424 187.096ZM13.2138 187.886C13.1686 187.849 13.1235 187.813 13.0783 187.776C13.0331 187.739 12.9879 187.702 12.9427 187.665L20.1714 187.298C20.2617 187.39 20.3069 187.463 20.3973 187.555L13.2138 187.886Z" fill="url(#paint16_radial)"/>
<g opacity="0.2">
<g opacity="0.2">
<path opacity="0.2" d="M127.381 184.338C127.291 186.654 123.812 188.787 117.938 190.46L120.333 190.937C127.11 189.007 130.408 186.838 130.498 184.338H127.381Z" fill="url(#paint17_radial)"/>
</g>
</g>
<path opacity="0.6" d="M93.4515 194.632C103.617 194.21 112.924 192.96 119.746 191.085L117.351 190.607C109.671 192.702 98.3309 194.026 85.5904 194.026C78.1359 194.026 71.1332 193.548 65.034 192.739L63.4979 193.364C72.6692 194.614 83.2863 195.055 93.4515 194.632Z" fill="url(#paint18_radial)"/>
<path opacity="0.3" d="M43.6192 184.173C43.5288 178.75 62.2781 174.357 85.3645 174.357C87.6686 174.357 89.9727 174.412 92.1865 174.485L92.7287 173.75C84.7772 173.437 77.5485 173.585 69.9585 174.228C52.2484 175.754 40.4115 179.724 40.4567 184.154C40.4567 185.349 41.3603 186.526 43.077 187.665L46.0137 187.426C44.4776 186.415 43.6192 185.313 43.6192 184.173Z" fill="url(#paint19_radial)"/>
<path opacity="0.2" d="M46.3299 187.629L43.3933 187.868C47.1432 190.221 53.4682 191.985 62.6847 193.272L64.2208 192.647C56.1338 191.507 49.7184 189.743 46.3299 187.629Z" fill="url(#paint20_radial)"/>
<path opacity="0.5" d="M127.381 184.118H130.498C130.363 181.654 126.613 179.265 119.972 177.408C113.285 175.551 103.978 174.265 93.6322 173.805L93.0901 174.54C112.381 175.386 127.065 179.357 127.381 184.118Z" fill="url(#paint21_radial)"/>
</g>
</g>
<path opacity="0.3" d="M85.5 194.691C115.6 194.691 140 189.766 140 183.691C140 177.616 115.6 172.691 85.5 172.691C55.4005 172.691 31 177.616 31 183.691C31 189.766 55.4005 194.691 85.5 194.691Z" fill="url(#paint22_radial)"/>
<g filter="url(#filter1_df)">
<ellipse cx="83" cy="102.691" rx="33" ry="52" fill="#C032B7"/>
</g>
<g clip-path="url(#clip1)">
<path d="M48.0001 153.467V69.1483L81.5983 60.3549L87.7721 56.784C89.2037 55.9806 91.6643 56.0698 93.3196 57.0072L99.0908 60.3549H117.031L111.707 141.772C111.752 142.307 111.439 142.843 110.767 143.245L77.2587 168.464C75.8271 169.268 73.3665 169.179 71.7112 168.241L49.3869 155.386C48.4027 154.806 47.9553 154.091 48.0001 153.467Z" fill="#150836"/>
<path d="M90.3669 56.2484C91.3959 56.293 92.4696 56.5162 93.3196 57.0072L99.0908 60.355H117.031V144.896C117.075 145.432 116.762 145.968 116.091 146.369L77.2587 168.464C76.5876 168.866 75.6481 169.045 74.7086 169L74.2612 83.923L90.3669 56.2484Z" fill="#0E0631"/>
<path d="M76.856 168.643C75.648 169.179 73.8585 169.134 72.4269 168.598V82.941H76.856V168.643Z" fill="#09032B"/>
<path d="M77.2136 83.923L116.046 61.828C117.478 61.0245 117.299 59.5961 115.644 58.6141L93.3193 45.7588C91.664 44.8215 89.2034 44.7322 87.7718 45.5357L48.9392 67.6307C47.5076 68.4342 47.6866 69.8625 49.3419 70.8445L71.6661 83.6998C73.3214 84.6372 75.782 84.7711 77.2136 83.923Z" fill="#28104E"/>
<path d="M49.3421 69.2822L71.6663 82.1375C73.3216 83.0749 75.7822 83.1641 77.2138 82.3607L116.046 60.2657C116.36 60.0871 116.583 59.8639 116.762 59.6407C117.254 60.4442 117.031 61.2923 116.046 61.8279L77.2138 83.923C75.7822 84.7264 73.3216 84.6371 71.6663 83.6998L49.3421 70.8445C48.0894 70.1303 47.6868 69.1037 48.2236 68.3002C48.4473 68.6127 48.8052 68.9698 49.3421 69.2822Z" fill="#9606A9"/>
<path d="M76.1403 74.9957L101.999 60.0425C102.67 59.6407 102.58 58.9712 101.82 58.5695L91.3512 52.5435C90.5907 52.0972 89.4275 52.0525 88.7564 52.4543L62.8979 67.4075C62.2268 67.8092 62.3163 68.4788 63.0768 68.8805L73.5455 74.9064C74.306 75.3081 75.4692 75.3528 76.1403 74.9957Z" fill="#260E45"/>
<path d="M90.0985 60.712L91.5748 59.8639C91.6643 59.8193 91.6643 59.73 91.5301 59.6407L90.0985 58.7926C90.009 58.748 89.8301 58.7034 89.7406 58.7926L88.2642 59.6407C88.1748 59.6854 88.1748 59.7746 88.309 59.8639L89.7406 60.712C89.8301 60.7566 90.009 60.7566 90.0985 60.712Z" fill="url(#paint23_linear)"/>
<path d="M85.0879 63.5687L86.5642 62.7206C86.6537 62.676 86.6537 62.5867 86.5195 62.4974L85.0879 61.6493C84.9984 61.6047 84.8194 61.56 84.73 61.6493L83.2536 62.4974C83.1641 62.542 83.1641 62.6313 83.2984 62.7206L84.73 63.5687C84.8194 63.6133 84.9984 63.6133 85.0879 63.5687Z" fill="url(#paint24_linear)"/>
<path d="M80.0773 66.4255L81.5536 65.5774C81.6431 65.5328 81.6431 65.4435 81.5089 65.3542L80.0773 64.5061C79.9878 64.4615 79.8088 64.4169 79.7194 64.5061L78.243 65.3542C78.1535 65.3989 78.1535 65.4881 78.2877 65.5774L79.7194 66.4255C79.8088 66.4701 79.9878 66.5148 80.0773 66.4255Z" fill="url(#paint25_linear)"/>
<path d="M75.0665 69.3269L76.5429 68.4788C76.6323 68.4341 76.6323 68.3449 76.4981 68.2556L75.0665 67.4075C74.977 67.3629 74.7981 67.3182 74.7086 67.4075L73.2322 68.2556C73.1428 68.3002 73.1428 68.3895 73.277 68.4788L74.7086 69.3269C74.7981 69.3715 74.977 69.3715 75.0665 69.3269Z" fill="url(#paint26_linear)"/>
<path d="M101.999 60.0425C101.909 60.0425 101.865 59.9978 101.82 59.9532L91.3512 53.9273C90.5907 53.4809 89.4275 53.4363 88.7564 53.838L62.9426 68.7912C62.3163 68.3448 62.3163 67.7646 62.8979 67.4075L88.7564 52.4543C89.4275 52.0525 90.5907 52.0972 91.3512 52.5435L101.82 58.5695C102.58 58.9712 102.625 59.6407 101.999 60.0425Z" fill="#0E0631"/>
<path d="M110.446 75.3333L110.446 75.3335L110.435 75.3397L81.7641 91.8518C81.4621 92.0377 81.1502 92.3914 80.9116 92.8476C80.6737 93.3027 80.5324 93.8151 80.5324 94.2786V99.5457C80.5324 99.9929 80.6725 100.201 80.7681 100.272C80.8377 100.325 80.9849 100.379 81.2631 100.226L109.93 83.7163C110.232 83.5304 110.544 83.1767 110.783 82.7205C111.021 82.2654 111.162 81.753 111.162 81.2894V76.0223C111.162 75.5443 111.017 75.3301 110.926 75.2621C110.87 75.2196 110.732 75.1592 110.446 75.3333Z" fill="#5793CE" stroke="url(#paint27_linear)"/>
<path d="M84.7882 94.8303C84.795 94.8209 84.8049 94.8053 84.8155 94.783C84.8288 94.7552 84.8398 94.7243 84.8471 94.6947C84.8547 94.6642 84.8562 94.6437 84.8562 94.6357V93.6195L83.9557 94.1286C83.9489 94.1381 83.9391 94.1537 83.9284 94.176C83.9152 94.2037 83.9041 94.2346 83.8968 94.2643C83.8892 94.2948 83.8877 94.3153 83.8877 94.3233V95.3394L84.7882 94.8303ZM84.7807 94.8395C84.7807 94.8396 84.7811 94.8392 84.7818 94.8385C84.7811 94.8391 84.7807 94.8395 84.7807 94.8395ZM83.9632 94.1194C83.9632 94.1194 83.9628 94.1197 83.9622 94.1205C83.9629 94.1198 83.9632 94.1194 83.9632 94.1194ZM84.8559 93.2015C84.8559 93.2015 84.8559 93.2027 84.8562 93.2049L84.8559 93.2015Z" fill="#0E0631" stroke="url(#paint28_linear)"/>
<path d="M89.2619 92.2414C89.2688 92.232 89.2786 92.2164 89.2892 92.1941C89.3025 92.1663 89.3135 92.1354 89.3209 92.1058C89.3284 92.0753 89.33 92.0547 89.33 92.0468V91.0306L88.4295 91.5397C88.4227 91.5491 88.4128 91.5648 88.4022 91.587C88.3889 91.6148 88.3779 91.6457 88.3706 91.6753C88.363 91.7059 88.3615 91.7264 88.3615 91.7343V92.7505L89.2619 92.2414ZM89.2545 92.2506C89.2545 92.2506 89.2548 92.2503 89.2555 92.2495C89.2548 92.2502 89.2545 92.2506 89.2545 92.2506ZM88.3618 93.1685C88.3618 93.1685 88.3618 93.1673 88.3615 93.1652L88.3618 93.1685ZM88.437 91.5305C88.437 91.5305 88.4366 91.5308 88.4359 91.5316C88.4366 91.5309 88.437 91.5305 88.437 91.5305ZM89.3297 90.6126C89.3296 90.6126 89.3296 90.6138 89.3299 90.6159L89.3297 90.6126Z" fill="#0E0631" stroke="url(#paint29_linear)"/>
<path d="M81.2484 119.161L81.2484 119.16L81.2592 119.154L109.93 102.642C110.232 102.456 110.544 102.103 110.783 101.646C111.021 101.191 111.162 100.679 111.162 100.215V94.9482C111.162 94.4701 111.017 94.256 110.926 94.188C110.87 94.1454 110.732 94.085 110.446 94.2592L110.446 94.2593L110.435 94.2656L81.7641 110.778C81.4621 110.964 81.1502 111.317 80.9116 111.773C80.6737 112.229 80.5324 112.741 80.5324 113.204V118.472C80.5324 118.921 80.6737 119.142 80.7734 119.219C80.8377 119.269 80.9747 119.327 81.2484 119.161Z" fill="#5793CE" stroke="url(#paint30_linear)"/>
<path d="M83.7009 114.945L85.043 114.187C85.222 114.097 85.3562 113.785 85.3562 113.562V112.133C85.3562 111.91 85.222 111.776 85.043 111.865L83.7009 112.624C83.5219 112.714 83.3877 113.026 83.3877 113.249V114.678C83.343 114.945 83.5219 115.079 83.7009 114.945Z" fill="#0E0631"/>
<path d="M88.1747 112.356L89.5168 111.598C89.6957 111.508 89.83 111.196 89.83 110.973V109.544C89.83 109.321 89.6957 109.187 89.5168 109.276L88.1747 110.035C87.9957 110.125 87.8615 110.437 87.8615 110.66V112.089C87.8615 112.356 87.9957 112.446 88.1747 112.356Z" fill="#0E0631"/>
<path d="M110.446 113.23L110.446 113.23L110.435 113.236L81.7641 129.748C81.4621 129.934 81.1502 130.288 80.9116 130.744C80.6737 131.199 80.5324 131.711 80.5324 132.175V137.397C80.5324 137.873 80.6761 138.092 80.7734 138.167C80.8413 138.219 80.9849 138.276 81.2631 138.122L109.93 121.613C110.232 121.427 110.544 121.073 110.783 120.617C111.021 120.162 111.162 119.649 111.162 119.186V113.919C111.162 113.441 111.017 113.226 110.926 113.158C110.87 113.116 110.732 113.055 110.446 113.23Z" fill="#5793CE" stroke="url(#paint31_linear)"/>
<path d="M83.7009 133.916L85.043 133.157C85.222 133.068 85.3562 132.755 85.3562 132.532V131.104C85.3562 130.88 85.222 130.747 85.043 130.836L83.7009 131.595C83.5219 131.684 83.3877 131.996 83.3877 132.22V133.648C83.343 133.916 83.5219 134.005 83.7009 133.916Z" fill="#0E0631"/>
<path d="M88.1747 131.327L89.5168 130.568C89.6957 130.479 89.83 130.166 89.83 129.943V128.47C89.83 128.247 89.6957 128.113 89.5168 128.202L88.1747 128.961C87.9957 129.05 87.8615 129.363 87.8615 129.586V131.014C87.8615 131.282 87.9957 131.416 88.1747 131.327Z" fill="#0E0631"/>
<path d="M81.2484 157.057L81.2484 157.057L81.2592 157.051L109.93 140.538C110.232 140.353 110.544 139.999 110.783 139.543C111.021 139.088 111.162 138.575 111.162 138.112V132.845C111.162 132.366 111.017 132.152 110.926 132.084C110.87 132.042 110.732 131.981 110.446 132.156L110.446 132.156L110.435 132.162L81.7641 148.674C81.4621 148.86 81.1502 149.214 80.9116 149.67C80.6737 150.125 80.5324 150.637 80.5324 151.101V156.368C80.5324 156.846 80.6773 157.06 80.7681 157.128C80.825 157.171 80.9628 157.231 81.2484 157.057Z" fill="#5793CE" stroke="url(#paint32_linear)"/>
<path d="M83.8877 151.146V152.162L84.7882 151.653C84.795 151.643 84.8049 151.628 84.8155 151.605C84.8288 151.577 84.8398 151.547 84.8471 151.517C84.8547 151.486 84.8562 151.466 84.8562 151.458V150.442L83.9557 150.951C83.9489 150.96 83.9391 150.976 83.9284 150.998C83.9152 151.026 83.9041 151.057 83.8968 151.087C83.8892 151.117 83.8877 151.138 83.8877 151.146ZM84.7807 151.662C84.7807 151.662 84.7811 151.661 84.7818 151.661C84.7811 151.661 84.7807 151.662 84.7807 151.662ZM84.8559 150.024C84.8559 150.024 84.8559 150.025 84.8562 150.027L84.8559 150.024ZM83.9632 150.942C83.9632 150.942 83.9628 150.942 83.9622 150.943C83.9629 150.942 83.9632 150.942 83.9632 150.942Z" stroke="#0E0631"/>
<path d="M88.1747 150.253L89.5168 149.494C89.6957 149.405 89.83 149.092 89.83 148.869V147.441C89.83 147.217 89.6957 147.084 89.5168 147.173L88.1747 147.932C87.9957 148.021 87.8615 148.333 87.8615 148.557V149.985C87.8615 150.253 87.9957 150.387 88.1747 150.253Z" fill="#0E0631"/>
<path d="M67.3267 100.662L52.608 92.27C51.8027 91.779 51.1316 90.5291 51.1316 89.4132V84.1461C51.1316 83.0302 51.8027 82.5392 52.608 83.0302L67.3267 91.4219C68.132 91.9129 68.8031 93.1627 68.8031 94.2786V99.5457C68.8031 100.617 68.132 101.108 67.3267 100.662Z" fill="url(#paint33_linear)"/>
<path d="M67.3267 119.587L52.608 111.196C51.8027 110.705 51.1316 109.455 51.1316 108.339V103.072C51.1316 101.956 51.8027 101.465 52.608 101.956L67.3267 110.348C68.132 110.839 68.8031 112.089 68.8031 113.204V118.472C68.8031 119.543 68.132 120.078 67.3267 119.587Z" fill="url(#paint34_linear)"/>
<path d="M67.3267 138.558L52.608 130.166C51.8027 129.675 51.1316 128.425 51.1316 127.31V122.042C51.1316 120.927 51.8027 120.436 52.608 120.927L67.3267 129.318C68.132 129.809 68.8031 131.059 68.8031 132.175V137.397C68.8031 138.513 68.132 139.004 67.3267 138.558Z" fill="url(#paint35_linear)"/>
<path d="M67.3267 157.484L52.608 149.092C51.8027 148.601 51.1316 147.351 51.1316 146.235V140.968C51.1316 139.852 51.8027 139.361 52.608 139.852L67.3267 148.244C68.132 148.735 68.8031 149.985 68.8031 151.101V156.368C68.8031 157.484 68.132 157.975 67.3267 157.484Z" fill="url(#paint36_linear)"/>
<path d="M85.0022 119.662V90.2027L95.9612 82.5455C101.491 78.6667 107.054 75.4566 112.584 72.9488L123.543 68L127.967 70.5747L123.074 74.1191V97.1578C123.074 97.1578 123.677 115.95 103.803 137.651C101.256 137.818 99.0445 137.618 97.1007 137.183L97.4359 138.253L93.5482 135.979C93.2131 135.812 92.878 135.611 92.5763 135.411L92.5093 135.377C84.667 130.295 85.0022 119.662 85.0022 119.662Z" fill="#721BD5"/>
<path d="M104.306 77.2289C107.088 75.6238 109.836 74.2194 112.618 72.9488L123.543 68L127.967 70.5747L123.074 74.1191V88.0293L104.306 77.2289Z" fill="#B45EF4"/>
<path d="M108.094 75.1558L117.344 80.4724L109.736 84.8527L100.486 79.5361C103.033 77.9311 105.58 76.4598 108.094 75.1558Z" fill="#7E23DC"/>
<path d="M89.4267 122.236V92.7774L100.386 85.1202C105.916 81.2748 111.479 78.0648 117.009 75.5569L127.968 70.5747V100.033C127.968 100.033 128.571 118.826 108.697 140.527C88.8235 141.73 89.4267 122.236 89.4267 122.236Z" fill="#983BE9"/>
<path d="M97.0681 133.839C99.4475 136.146 102.866 137.317 107.189 137.25C124.851 117.421 124.684 100.301 124.65 100.134V75.6907L118.349 78.5329C113.021 80.9404 107.591 84.0836 102.229 87.8286L92.6777 94.5162V122.236V122.337C92.7112 122.403 92.6107 129.559 97.0681 133.839Z" fill="url(#paint37_linear)"/>
<g filter="url(#filter2_d)">
<path d="M102.586 110.403C102.548 109.855 102.365 109.421 102.112 109.175L100.212 109.313L102.175 107.589C102.448 107.272 102.664 106.791 102.753 106.219C102.835 105.65 102.773 105.112 102.599 104.717L101.787 103.281L103 103.193C103.309 103.049 103.605 102.701 103.801 102.198C103.997 101.695 104.06 101.123 103.994 100.629L103.227 98.4406L104.675 99.3714C104.979 99.4178 105.313 99.2625 105.6 98.8767C105.881 98.4937 106.063 97.9755 106.116 97.4502L106.264 95.9635L106.987 96.6337C107.246 96.8668 107.575 96.9126 107.907 96.7167C108.239 96.5207 108.505 96.1126 108.67 95.6228L109.092 94.7831L109.604 95.3544C109.778 95.7498 110.057 95.9952 110.39 95.9977C110.723 96.0103 111.045 95.7663 111.294 95.3865L111.991 93.5822L112.179 95.7044C112.245 96.199 112.44 96.6168 112.729 96.8264C113.018 97.036 113.361 97.0026 113.659 96.7794L114.504 96.1416L114.37 97.6331C114.323 98.166 114.398 98.6884 114.61 99.0778C114.822 99.4673 115.121 99.641 115.438 99.598L116.338 99.4805L115.896 100.865C115.738 101.362 115.693 101.925 115.792 102.437C115.891 102.948 116.121 103.31 116.406 103.458L117.203 103.898L116.517 104.99C116.275 105.377 116.107 105.91 116.088 106.473C116.063 107.038 116.187 107.539 116.407 107.862L117.014 108.782L116.17 109.44C115.873 109.673 115.614 110.099 115.466 110.645C115.324 111.187 115.224 112.343 115.345 112.803L115.468 113.68L114.896 113.622C114.58 113.665 114.265 113.926 114.015 114.38C113.771 114.831 113.649 115.386 113.659 115.905L113.582 117.167L112.874 116.956C112.589 116.807 112.248 116.871 111.936 117.163C111.623 117.455 110.992 117.405 110.886 117.921L110.986 119.908L110.368 119.003C110.147 118.68 109.837 118.532 109.499 118.637C109.16 118.731 108.856 119.061 108.65 119.506L108.064 120.754L107.715 119.482C107.595 119.032 107.354 118.697 107.033 118.584C106.713 118.472 106.377 118.607 106.097 118.917L105.313 119.79L105.283 118.327C105.273 117.809 105.138 117.323 104.88 117.016C104.623 116.709 104.298 116.64 103.988 116.775L102.947 117.255L103.402 115.689C103.507 115.173 103.488 114.616 103.335 114.149C103.176 113.695 102.908 113.424 102.603 113.357L101.337 113.962L102.32 111.931C102.521 111.509 102.623 110.952 102.586 110.403ZM103.538 113.461C105.097 118.122 109.457 120.223 112.482 116.883C115.508 113.544 117.455 105.525 115.896 100.865C115.258 98.9522 114.034 97.6186 112.603 96.9424C111.672 96.5024 110.653 96.3408 109.651 96.4792C108.446 96.6455 107.266 97.2456 106.29 98.317C103.265 101.656 101.985 108.808 103.538 113.461Z" fill="#721BD5"/>
<path d="M111.687 96.3808L111.89 93.5509L111.197 96.2732L111.687 96.3808Z" fill="#721BD5"/>
<path d="M114.558 98.7725L116.207 93.698L114.05 97.9211L114.558 98.7725Z" fill="#721BD5"/>
<path d="M115.247 100.142L116.492 97.9283L114.976 99.524L115.247 100.142Z" fill="#721BD5"/>
<path d="M116.311 105.942L118.763 104.862L116.53 104.555L116.311 105.942Z" fill="#721BD5"/>
<path d="M116.306 106.563L117.274 105.054L116.356 105.718L116.306 106.563Z" fill="#721BD5"/>
<path d="M115.68 110.217L117.298 110.645L115.901 109.388L115.68 110.217Z" fill="#721BD5"/>
<path d="M113.524 115.352L114.723 116.347L114.128 114.296L113.524 115.352Z" fill="#721BD5"/>
<path d="M111.431 117.392L112.02 119.945L111.885 116.951L111.431 117.392Z" fill="#721BD5"/>
<path d="M109.883 118.338L110.256 120.979L110.39 118.154L109.883 118.338Z" fill="#721BD5"/>
<path d="M108.934 118.529L109.235 120.656L109.433 118.49L108.934 118.529Z" fill="#721BD5"/>
<path d="M105.065 117.217L104.29 119.888L105.471 117.592L105.065 117.217Z" fill="#721BD5"/>
<path d="M103.478 114.149L103.11 116.003L103.767 114.765L103.478 114.149Z" fill="#721BD5"/>
<path d="M103.615 112.887L101.878 114.369L103.949 113.929L103.615 112.887Z" fill="#721BD5"/>
<path d="M102.693 108.976L99.6072 110.902L102.728 109.814L102.693 108.976Z" fill="#721BD5"/>
<path d="M103.1 107.454L101.441 107.987L103.049 108.299L103.1 107.454Z" fill="#721BD5"/>
<path d="M103.076 105.173L101.42 105.166L102.927 106.002L103.076 105.173Z" fill="#721BD5"/>
<path d="M104.648 101.444L101.891 99.3707L104.141 102.616L104.648 101.444Z" fill="#721BD5"/>
<path d="M104.677 99.8531L103.338 98.4758L104.312 100.519L104.677 99.8531Z" fill="#721BD5"/>
<path d="M107.267 96.9807L106.349 94.8457L106.811 97.4508L107.267 96.9807Z" fill="#721BD5"/>
<path d="M109.652 96.1996L108.724 90.6907L108.58 96.7109L109.652 96.1996Z" fill="#721BD5"/>
<path fill-rule="evenodd" clip-rule="evenodd" d="M101.033 107.941C101.378 108.098 101.724 108.255 102.041 108.504C102.73 109.051 102.696 110.161 101.991 110.966C101.951 111.009 101.914 111.06 101.87 111.118C101.85 111.145 101.829 111.173 101.806 111.203C101.883 111.211 101.958 111.215 102.031 111.22C102.196 111.23 102.351 111.24 102.5 111.279C102.75 111.342 102.82 111.558 102.699 111.974C102.623 112.229 102.516 112.469 102.411 112.708C102.372 112.795 102.334 112.881 102.298 112.968C102.25 113.075 102.198 113.18 102.135 113.307C102.093 113.392 102.046 113.487 101.992 113.599C102.083 113.594 102.167 113.59 102.247 113.587C102.395 113.58 102.529 113.575 102.663 113.562C103.048 113.534 103.341 113.753 103.533 114.282C103.672 114.669 103.811 115.048 103.965 115.412C104.068 115.664 104.073 115.929 103.982 116.223C103.924 116.407 103.866 116.591 103.809 116.775L103.808 116.776C103.612 117.404 103.415 118.034 103.208 118.655C103.076 119.051 102.931 119.433 102.785 119.815C102.72 119.986 102.655 120.156 102.591 120.328L102.626 120.417C102.661 120.38 102.697 120.344 102.733 120.309C102.805 120.237 102.877 120.166 102.942 120.081C103.167 119.785 103.391 119.483 103.615 119.181C103.912 118.781 104.209 118.381 104.509 117.993C105.286 116.987 106.449 117.508 106.626 118.925C106.643 119.069 106.645 119.219 106.647 119.368C106.649 119.469 106.65 119.569 106.656 119.667C106.668 119.836 106.685 120.005 106.706 120.215C106.713 120.286 106.721 120.362 106.729 120.445C106.757 120.406 106.783 120.369 106.808 120.335C106.917 120.182 106.998 120.07 107.079 119.948C107.153 119.835 107.226 119.719 107.299 119.604C107.456 119.356 107.612 119.109 107.778 118.893C108.003 118.6 108.136 118.684 108.21 119.097C108.253 119.322 108.291 119.555 108.338 119.849L108.365 119.761L108.389 119.683C108.45 119.484 108.501 119.319 108.554 119.154C108.778 118.482 109.119 118.311 109.364 118.845C109.683 119.533 109.972 120.276 110.223 121.052C110.36 121.469 110.46 121.926 110.56 122.383C110.602 122.579 110.645 122.776 110.691 122.969C110.712 123.051 110.738 123.134 110.764 123.216C110.775 123.215 110.785 123.213 110.795 123.21C110.805 123.208 110.816 123.205 110.827 123.205L110.852 122.831C110.887 122.371 110.922 121.912 110.957 121.453C111.027 120.529 111.097 119.605 111.171 118.678C111.233 117.901 111.441 117.381 111.787 117.271C111.997 117.206 112.234 117.262 112.421 117.396C112.738 117.62 113.257 118.094 113.627 118.431L113.628 118.432L113.629 118.433C113.665 118.466 113.7 118.498 113.733 118.528C113.745 118.165 113.681 117.761 113.62 117.373C113.568 117.046 113.518 116.731 113.518 116.463C113.522 115.082 114.176 113.969 114.989 114C115.218 114.012 115.447 114.026 115.686 114.04C115.831 114.049 115.98 114.058 116.135 114.067C116.12 113.994 116.105 113.923 116.091 113.854C116.036 113.584 115.985 113.336 115.924 113.031C116.257 113.14 116.581 113.244 116.9 113.348L116.901 113.348L116.902 113.348C117.309 113.48 117.709 113.609 118.109 113.74C118.12 113.709 118.131 113.686 118.141 113.662L117.448 112.63C117.285 112.385 117.121 112.141 116.957 111.898L116.956 111.897C116.718 111.544 116.48 111.191 116.245 110.836C116.16 110.719 116.094 110.563 116.038 110.399C115.908 110.012 115.954 109.804 116.234 109.607C116.563 109.372 116.894 109.151 117.225 108.93C117.323 108.864 117.421 108.799 117.519 108.733C117.533 108.723 117.548 108.713 117.564 108.702C117.6 108.677 117.644 108.647 117.706 108.601C117.69 108.574 117.675 108.547 117.661 108.522C117.609 108.431 117.565 108.352 117.514 108.278C117.282 107.949 117.045 107.62 116.809 107.291C116.258 106.532 116.295 105.384 116.898 104.448C117.161 104.047 117.424 103.646 117.683 103.244C117.746 103.151 117.807 103.046 117.882 102.916C117.896 102.893 117.909 102.869 117.924 102.844C117.848 102.817 117.774 102.79 117.702 102.764L117.7 102.763L117.7 102.763C117.445 102.671 117.208 102.586 116.972 102.486C116.928 102.467 116.889 102.42 116.85 102.373C116.835 102.355 116.82 102.337 116.805 102.321C116.815 102.299 116.826 102.275 116.836 102.252C116.867 102.185 116.898 102.116 116.938 102.063L118.979 99.3567C119.032 99.2855 119.082 99.2069 119.115 99.0533C118.659 99.2385 118.203 99.4222 117.741 99.6081L117.74 99.6086L117.739 99.6089C117.175 99.8361 116.602 100.067 116.013 100.307C116.138 99.8678 116.372 99.4624 116.605 99.057C116.839 98.6516 117.072 98.2461 117.197 97.8067C116.958 97.872 116.621 97.9206 116.287 97.9686C115.943 98.0181 115.603 98.0671 115.379 98.1332C114.906 98.2727 114.444 97.8577 114.291 97.145C114.283 97.1146 114.354 96.7774 114.415 96.488C114.46 96.2792 114.499 96.0952 114.499 96.0698C114.507 95.7126 114.458 95.5791 114.408 95.4455C114.359 95.312 114.31 95.1784 114.318 94.8213C114.323 94.6946 114.319 94.5685 114.314 94.4164C114.313 94.3585 114.311 94.2967 114.309 94.2298C114.096 94.4122 113.901 94.6409 113.708 94.8683C113.394 95.2371 113.084 95.6022 112.704 95.759C112.693 95.752 112.772 94.3949 112.851 93.0379C112.93 91.6808 113.009 90.3238 112.999 90.3168C112.969 90.3834 112.937 90.4481 112.906 90.5127C112.852 90.6212 112.799 90.7294 112.758 90.8459C112.532 91.4623 112.31 92.0816 112.086 92.7039C111.953 93.0743 111.819 93.4458 111.684 93.8185C111.645 93.9265 111.603 94.0322 111.557 94.1464C111.521 94.2368 111.483 94.3325 111.442 94.4388C111.329 93.9365 111.23 93.4865 111.131 93.0365C111.118 93.0334 111.01 93.2488 110.903 93.4641C110.795 93.6794 110.688 93.8947 110.675 93.8916C110.539 94.1843 110.491 94.2705 110.444 94.3553C110.393 94.4465 110.344 94.5361 110.187 94.8789C110.17 94.7647 110.153 94.6578 110.137 94.5509C110.112 94.3901 110.088 94.2285 110.06 94.0434C110.043 94.0924 110.027 94.1355 110.012 94.1749C109.983 94.2534 109.959 94.3171 109.948 94.3834C109.779 95.5082 108.771 95.7754 108.39 95.1511C108.326 95.0445 108.263 94.9341 108.2 94.8237C108.137 94.7133 108.075 94.6028 108.011 94.4963C107.947 94.389 107.877 94.2888 107.798 94.1757C107.758 94.1184 107.715 94.0577 107.67 93.9911C107.655 94.1065 107.641 94.2187 107.627 94.3285L107.627 94.3296C107.58 94.7065 107.536 95.0541 107.482 95.3978C107.442 95.6579 107.38 95.9194 107.297 96.1591C107.119 96.6692 106.782 95.8764 106.468 95.1391C106.306 94.7583 106.151 94.3923 106.027 94.2285C106.027 94.2285 106.189 97.7184 105.781 97.1562C105.67 97.0006 105.387 96.3 105.102 95.5954C104.812 94.8779 104.52 94.1562 104.407 94.0015C104.397 94.0135 104.388 94.0253 104.38 94.0372L104.379 94.0388L104.376 94.0196L104.372 93.9961C104.327 93.9924 104.353 94.0159 104.378 94.0388L104.379 94.0388C104.37 94.05 104.362 94.0615 104.353 94.0728C104.366 94.1993 104.415 94.8416 104.472 95.5854C104.558 96.7047 104.661 98.0538 104.684 98.2212C104.795 98.9665 104.687 99.6478 104.344 100.296C104.176 100.617 104.01 100.952 103.862 101.302C103.683 101.713 103.458 101.946 103.18 102.029C102.949 102.095 102.721 102.168 102.443 102.259C102.535 102.48 102.62 102.689 102.709 102.907L102.709 102.908L102.71 102.91C102.759 103.028 102.808 103.149 102.86 103.276C102.751 103.282 102.556 103.297 102.374 103.311C102.212 103.324 102.06 103.335 101.984 103.34C101.981 103.351 102.064 103.356 102.147 103.361C102.229 103.365 102.312 103.37 102.309 103.382C102.351 103.434 102.393 103.489 102.434 103.544C102.502 103.633 102.57 103.723 102.642 103.804C102.824 104.007 102.886 104.284 102.859 104.68C102.775 105.869 102.692 106.048 101.997 106.366L99.9689 107.296C99.9092 107.322 99.8529 107.363 99.7881 107.465C99.9171 107.514 100.047 107.56 100.176 107.606C100.435 107.698 100.695 107.79 100.949 107.903L100.993 107.923L101.033 107.941ZM104.407 94.0015C104.392 93.9986 104.381 93.9968 104.372 93.9961C104.325 93.6978 104.283 93.4192 104.407 94.0015ZM104.379 94.0394L104.385 94.0783C104.425 94.0823 104.403 94.0612 104.379 94.0394ZM103.262 107.683C102.897 113.674 105.466 118.323 109 118.067C110.586 117.952 112.098 116.868 113.315 115.166C114.809 113.077 115.859 110.057 116.06 106.756C116.341 102.156 114.891 98.3469 112.603 96.9424C111.672 96.5024 110.653 96.3408 109.651 96.4792C108.207 96.8339 106.853 97.9757 105.765 99.6262C105.687 99.7444 105.766 100.118 105.844 100.491C105.922 100.858 105.999 101.226 105.928 101.352C105.438 100.591 104.674 101.658 104.553 101.906C103.639 103.777 103.411 105.241 103.262 107.683Z" fill="#721BD5"/>
<path fill-rule="evenodd" clip-rule="evenodd" d="M102.489 115.334C102.415 115.336 102.345 115.338 102.197 115.414C102.001 115.641 101.242 116.058 101.105 115.834C101.096 115.385 101.29 115.282 101.469 115.186C101.51 115.164 101.55 115.143 101.587 115.118C102.197 114.693 102.788 114.198 103.316 113.442C103.094 113.292 102.863 113.396 102.632 113.499C102.425 113.592 102.219 113.684 102.021 113.594C102.11 113.124 102.376 112.998 102.575 112.956C102.931 112.888 103.185 112.531 103.2 112.098C103.205 111.789 102.967 111.677 102.752 111.576C102.713 111.558 102.674 111.54 102.638 111.521C101.995 111.164 101.297 111.343 100.415 111.568L100.399 111.573C101.37 110.714 102.138 110.035 102.922 109.336C102.831 109.204 102.682 109.152 102.55 109.106C102.379 109.045 102.236 108.995 102.286 108.795C102.314 108.677 102.328 108.538 102.343 108.391C102.391 107.914 102.446 107.367 103.015 107.297L103.017 107.275C102.339 107.027 101.836 106.734 101.395 106.273C101.336 106.049 101.419 105.999 101.502 105.95C101.525 105.936 101.547 105.923 101.567 105.906C101.624 105.899 101.68 105.893 101.738 105.887C101.952 105.864 102.169 105.841 102.376 105.76C102.741 105.624 103.087 105.417 102.823 104.672C102.71 104.381 102.823 104.186 102.934 103.992C103.008 103.865 103.081 103.738 103.09 103.585C103.018 103.465 102.942 103.351 102.866 103.238C102.737 103.045 102.609 102.854 102.506 102.638C102.364 102.345 102.321 101.927 102.486 101.513C102.586 101.272 102.7 101.386 102.819 101.504C102.893 101.578 102.969 101.653 103.045 101.646C103.096 101.64 103.147 101.635 103.198 101.63C103.521 101.597 103.83 101.565 104.15 101.409L104.072 100.299C104.08 100.026 104.16 99.9444 104.304 100.009L104.418 100.093C104.439 100.112 104.46 100.133 104.481 100.154C104.599 100.27 104.728 100.397 104.856 100.425C104.975 100.19 105.099 99.9612 105.227 99.74C105.186 99.6287 105.107 99.5372 105.031 99.4482C104.977 99.3864 104.925 99.3257 104.887 99.2603C104.336 98.2722 104.213 97.4314 104.518 96.0508C104.798 96.635 105.233 97.0956 105.616 97.5013C105.665 97.5538 105.714 97.6053 105.762 97.6561C105.941 97.1297 107.035 96.2873 107.337 96.4182C107.427 95.193 107.332 94.0122 106.951 93.0004C107.38 92.5754 107.551 92.7579 107.64 93.4568C107.726 94.1984 107.854 94.9236 107.989 95.6887C108.035 95.952 108.083 96.2201 108.129 96.4952C108.192 96.4545 108.255 96.4152 108.318 96.3774C108.492 95.9509 108.604 95.613 108.642 95.2367C108.646 95.1677 108.636 95.0778 108.625 94.9861C108.601 94.776 108.576 94.5568 108.73 94.5609C108.909 94.5615 108.92 94.9018 108.929 95.1545L108.929 95.1596C109.032 95.3272 109.094 95.2075 109.154 95.0931C109.174 95.0546 109.193 95.0167 109.214 94.9906C109.516 94.8981 109.552 94.5814 109.589 94.2627C109.603 94.1382 109.617 94.0135 109.647 93.9017C109.661 93.8514 109.671 93.7933 109.681 93.7342C109.712 93.5594 109.744 93.3758 109.871 93.3581C110.054 93.3361 110.103 93.5945 110.139 93.8512C110.154 93.9246 110.148 94.0091 110.143 94.0959C110.133 94.2596 110.122 94.4314 110.242 94.5518C110.447 93.838 110.556 93.0931 110.662 92.3626C110.674 92.2797 110.686 92.1969 110.698 92.1143C110.702 92.0878 110.705 92.0597 110.709 92.0306C110.737 91.7883 110.774 91.4803 110.947 91.4824C111.198 91.4693 111.171 93.2526 111.136 93.5229C111.08 93.9975 111.008 94.152 110.932 94.3151C110.852 94.4856 110.768 94.6654 110.694 95.2293C110.963 94.9632 111.195 94.737 111.416 94.5207C111.548 94.3916 111.676 94.2658 111.807 94.1373C111.834 94.1064 111.861 94.0742 111.888 94.0419C112.023 93.8808 112.16 93.7175 112.335 93.7021C112.422 93.7821 112.495 93.8604 112.387 94.0525C112.385 94.139 112.38 94.2264 112.375 94.3138C112.358 94.6186 112.341 94.9249 112.444 95.2054C112.52 95.0854 112.538 94.9316 112.555 94.7764C112.577 94.5757 112.6 94.3727 112.751 94.2373C112.774 94.3778 112.789 94.4715 112.819 94.5669C112.86 94.7027 112.856 94.8643 112.852 95.029C112.845 95.3275 112.837 95.6358 113.099 95.8176C113.455 96.0623 113.539 95.7534 113.622 95.4473C113.663 95.2937 113.705 95.1408 113.78 95.0588C113.855 94.98 113.927 94.8037 114 94.6253C114.117 94.342 114.235 94.0532 114.368 94.1409C114.61 94.3098 114.597 95.2798 114.575 95.6663C114.53 96.3248 114.601 96.9525 115.225 96.7361C115.601 96.6072 115.848 96.2218 116.093 95.8384C116.227 95.6292 116.36 95.4206 116.514 95.2546C116.656 95.2273 116.718 95.2813 116.631 95.5219C116.684 95.8383 116.578 96.0822 116.472 96.3273C116.406 96.4813 116.339 96.6357 116.311 96.8089C116.273 96.9184 116.236 97.0295 116.199 97.1407C116.088 97.4741 115.977 97.8076 115.824 98.097C115.805 98.1368 115.779 98.1726 115.753 98.2081C115.68 98.3071 115.609 98.4044 115.678 98.5819C115.671 98.6512 115.661 98.7245 115.652 98.797C115.596 99.2221 115.544 99.6225 116.034 99.0407C116.053 99.0194 116.078 98.9864 116.106 98.9486C116.269 98.7306 116.55 98.3534 116.587 99.1585C116.604 99.3156 116.631 99.2541 116.655 99.1989C116.666 99.1724 116.677 99.1473 116.686 99.1485C116.83 98.8924 116.996 98.8912 117.093 99.1099C117.166 99.2758 117.054 99.4395 116.969 99.5647L116.963 99.574C116.902 99.6692 116.838 99.7582 116.775 99.8473C116.711 99.9364 116.648 100.025 116.587 100.121C116.48 100.567 116.611 100.485 116.756 100.395C116.777 100.382 116.798 100.369 116.819 100.357C116.866 100.315 116.908 100.268 116.949 100.221C117.006 100.159 117.06 100.098 117.122 100.053C117.131 100.046 117.14 100.038 117.149 100.03C117.286 99.9129 117.459 99.7644 117.552 99.9486C117.662 100.199 117.538 100.376 117.42 100.544C117.389 100.588 117.358 100.632 117.332 100.676L117.174 100.93C116.969 101.241 117.085 101.307 117.202 101.373C117.292 101.424 117.383 101.476 117.332 101.638C117.308 101.822 117.229 102.018 117.151 102.214C116.959 102.693 116.766 103.176 117.353 103.496C117.374 103.508 117.394 103.521 117.413 103.534C117.489 103.583 117.558 103.628 117.671 103.606C117.854 103.585 117.978 103.807 117.944 104.169C117.92 104.444 117.812 104.453 117.703 104.462C117.678 104.464 117.652 104.466 117.628 104.471C117.557 104.485 117.488 104.505 117.42 104.524C117.351 104.544 117.283 104.564 117.212 104.577C116.928 104.632 116.552 104.858 116.564 105.295C116.57 105.711 116.724 105.618 116.889 105.519C116.988 105.46 117.091 105.398 117.169 105.442C117.19 105.458 117.206 105.48 117.225 105.506C117.239 105.526 117.255 105.548 117.277 105.571C116.791 106.432 117.076 106.477 117.362 106.523C117.543 106.551 117.725 106.58 117.71 106.819C117.669 106.911 117.605 106.904 117.541 106.898C117.455 106.89 117.369 106.881 117.339 107.114C117.271 107.105 117.232 107.192 117.267 107.242C117.302 107.268 117.3 107.259 117.297 107.246C117.293 107.231 117.288 107.21 117.338 107.228C117.398 107.252 117.462 107.257 117.526 107.262C117.645 107.27 117.764 107.279 117.855 107.41L117.838 107.431C117.901 107.573 118.014 107.636 118.128 107.7C118.327 107.81 118.528 107.922 118.468 108.452C118.314 108.879 118.086 108.864 117.873 108.85C117.846 108.848 117.819 108.846 117.793 108.845C117.375 108.86 116.978 108.716 116.535 108.498C116.714 109.461 117.141 109.7 117.584 109.918C117.612 109.941 117.641 109.963 117.67 109.986C118.023 110.26 118.377 110.535 118.091 111.45L117.991 111.574C117.772 111.475 117.567 111.322 117.359 111.167C116.958 110.868 116.55 110.564 116.021 110.63C116.058 110.774 116.08 110.925 116.1 111.073C116.152 111.436 116.2 111.777 116.476 111.927C116.734 112.075 116.964 112.54 116.803 112.931C116.677 113.243 116.527 113.093 116.378 112.943C116.308 112.874 116.238 112.804 116.171 112.78C116.119 112.751 116.081 112.723 116.043 112.695C115.818 112.535 115.579 112.612 115.339 112.689C115.224 112.727 115.108 112.764 114.994 112.775C114.947 112.885 114.899 112.994 114.85 113.102C115.008 113.188 115.15 113.12 115.317 113.041C115.466 112.97 115.634 112.89 115.85 112.899C115.987 112.917 116.286 114.293 116.237 114.561C116.216 114.653 115.967 114.774 115.777 114.867C115.689 114.91 115.614 114.947 115.58 114.971C115.513 115.014 115.437 115.048 115.36 115.083C115.3 115.111 115.239 115.138 115.18 115.171C115.016 115.47 114.964 115.761 115.076 116.074C115.154 116.25 115.266 116.356 115.379 116.462C115.453 116.531 115.527 116.601 115.592 116.691C115.596 116.714 115.604 116.732 115.612 116.751C115.62 116.769 115.628 116.787 115.632 116.811C115.474 117.474 114.999 117.022 114.538 116.584C114.196 116.26 113.862 115.942 113.671 116.093C113.569 116.177 113.545 116.681 113.523 117.133C113.499 117.638 113.478 118.079 113.354 117.797C113.153 117.31 112.861 117.42 112.555 117.534C112.541 117.539 112.527 117.544 112.513 117.55L112.511 117.547C112.419 117.423 112.419 117.423 112.286 117.382C112.335 117.442 112.329 117.518 112.324 117.599C112.32 117.657 112.315 117.718 112.331 117.778C112.346 117.855 112.367 117.93 112.387 118.006C112.467 118.303 112.549 118.61 112.36 119.042C112.273 118.987 112.228 118.844 112.182 118.701C112.106 118.464 112.029 118.226 111.766 118.391C111.54 118.533 111.52 118.79 111.5 119.042C111.487 119.195 111.475 119.346 111.417 119.468C111.413 119.502 111.409 119.536 111.406 119.57C111.395 119.672 111.385 119.773 111.351 119.872C111.294 120.094 111.175 120.262 111.02 120.287C110.903 120.226 110.756 120.184 110.647 120.376C110.142 121.281 110.127 120.8 110.111 120.309C110.107 120.186 110.103 120.063 110.092 119.96C110.039 119.841 110.047 119.702 110.055 119.555C110.062 119.432 110.069 119.303 110.042 119.175C109.967 119.251 109.902 119.366 109.837 119.48C109.694 119.734 109.551 119.986 109.307 119.812C109.228 119.458 109.153 119.082 109.08 118.683C109.045 118.743 109.01 118.809 108.975 118.876C108.776 119.253 108.566 119.654 108.228 119.259C108.215 119.22 108.216 119.165 108.217 119.108C108.219 118.99 108.221 118.868 108.095 118.898C107.994 118.931 107.922 119.059 107.969 119.225C107.912 119.768 107.816 120.511 107.453 120.418C107.171 120.344 107.27 119.854 107.358 119.42C107.379 119.318 107.399 119.219 107.413 119.13C107.418 119.101 107.423 119.072 107.428 119.043C107.478 118.746 107.526 118.465 107.404 118.216C107.348 118.196 107.293 118.175 107.238 118.152C106.969 118.907 106.598 119.481 106.14 119.857C105.92 119.628 105.997 119.314 106.074 118.997C106.138 118.735 106.203 118.47 106.1 118.249C105.8 118.21 105.524 118.311 105.28 118.692C105.177 118.953 105.087 119.216 104.997 119.479C104.904 119.56 104.824 119.694 104.744 119.827C104.567 120.12 104.392 120.409 104.096 120.118C104.335 119.764 104.484 119.315 104.633 118.865C104.741 118.538 104.849 118.211 104.992 117.921C105.123 117.663 105.111 117.433 105.015 117.214C104.912 116.956 104.787 117.081 104.669 117.2C104.642 117.226 104.617 117.252 104.591 117.273C104.518 117.334 104.445 117.408 104.371 117.483C104.132 117.725 103.882 117.978 103.56 117.849C103.686 117.363 103.922 117.092 104.15 116.829C104.276 116.685 104.4 116.542 104.501 116.368C104.439 116.328 104.378 116.286 104.316 116.244C103.845 115.922 103.389 115.611 102.925 116.442C102.849 116.423 102.763 116.462 102.679 116.5C102.555 116.556 102.434 116.611 102.352 116.477C102.401 116.359 102.471 116.255 102.541 116.153C102.701 115.916 102.86 115.683 102.759 115.27C102.625 115.33 102.556 115.332 102.489 115.334ZM103.262 107.683C102.897 113.674 105.466 118.323 109 118.067C110.586 117.952 112.098 116.868 113.315 115.166C114.809 113.077 115.859 110.057 116.06 106.756C116.341 102.156 114.891 98.3469 112.603 96.9424C111.672 96.5024 110.653 96.3408 109.651 96.4792C108.207 96.8339 106.853 97.9757 105.765 99.6262C105.687 99.7444 105.766 100.118 105.844 100.491C105.922 100.858 105.999 101.226 105.928 101.352C105.438 100.591 104.674 101.658 104.553 101.906C103.639 103.777 103.411 105.241 103.262 107.683Z" fill="#721BD5"/>
</g>
</g>
<defs>
<filter id="filter0_d" x="8" y="163.691" width="155" height="41" filterUnits="userSpaceOnUse" color-interpolation-filters="sRGB">
<feFlood flood-opacity="0" result="BackgroundImageFix"/>
<feColorMatrix in="SourceAlpha" type="matrix" values="0 0 0 0 0 0 0 0 0 0 0 0 0 0 0 0 0 0 127 0"/>
<feOffset/>
<feGaussianBlur stdDeviation="1.5"/>
<feColorMatrix type="matrix" values="0 0 0 0 0.94902 0 0 0 0 0.0313726 0 0 0 0 0.854902 0 0 0 0.1 0"/>
<feBlend mode="normal" in2="BackgroundImageFix" result="effect1_dropShadow"/>
<feBlend mode="normal" in="SourceGraphic" in2="effect1_dropShadow" result="shape"/>
</filter>
<filter id="filter1_df" x="0" y="0.691162" width="166" height="204" filterUnits="userSpaceOnUse" color-interpolation-filters="sRGB">
<feFlood flood-opacity="0" result="BackgroundImageFix"/>
<feColorMatrix in="SourceAlpha" type="matrix" values="0 0 0 0 0 0 0 0 0 0 0 0 0 0 0 0 0 0 127 0"/>
<feOffset dy="4"/>
<feGaussianBlur stdDeviation="2"/>
<feColorMatrix type="matrix" values="0 0 0 0 0 0 0 0 0 0 0 0 0 0 0 0 0 0 0.25 0"/>
<feBlend mode="normal" in2="BackgroundImageFix" result="effect1_dropShadow"/>
<feBlend mode="normal" in="SourceGraphic" in2="effect1_dropShadow" result="shape"/>
<feGaussianBlur stdDeviation="25" result="effect2_foregroundBlur"/>
</filter>
<filter id="filter2_d" x="83.6072" y="76.3168" width="51.5076" height="64.8989" filterUnits="userSpaceOnUse" color-interpolation-filters="sRGB">
<feFlood flood-opacity="0" result="BackgroundImageFix"/>
<feColorMatrix in="SourceAlpha" type="matrix" values="0 0 0 0 0 0 0 0 0 0 0 0 0 0 0 0 0 0 127 0"/>
<feOffset dy="2"/>
<feGaussianBlur stdDeviation="8"/>
<feColorMatrix type="matrix" values="0 0 0 0 0.894949 0 0 0 0 0.302083 0 0 0 0 0.966667 0 0 0 0.2 0"/>
<feBlend mode="normal" in2="BackgroundImageFix" result="effect1_dropShadow"/>
<feBlend mode="normal" in="SourceGraphic" in2="effect1_dropShadow" result="shape"/>
</filter>
<radialGradient id="paint0_radial" cx="0" cy="0" r="1" gradientUnits="userSpaceOnUse" gradientTransform="translate(85.5 184.2) rotate(90) scale(14.9908 63.6571)">
<stop stop-color="white"/>
<stop offset="1" stop-color="#F208DA" stop-opacity="0.4"/>
</radialGradient>
<radialGradient id="paint1_radial" cx="0" cy="0" r="1" gradientUnits="userSpaceOnUse" gradientTransform="translate(85.5226 184.2) rotate(90) scale(14.4577 61.24)">
<stop stop-color="white"/>
<stop offset="1" stop-color="#F208DA" stop-opacity="0.4"/>
</radialGradient>
<radialGradient id="paint2_radial" cx="0" cy="0" r="1" gradientUnits="userSpaceOnUse" gradientTransform="translate(60.9085 184.568) rotate(90) scale(7.03125 10.3602)">
<stop stop-color="white"/>
<stop offset="1" stop-color="#F208DA" stop-opacity="0.4"/>
</radialGradient>
<radialGradient id="paint3_radial" cx="0" cy="0" r="1" gradientUnits="userSpaceOnUse" gradientTransform="translate(114.641 180.965) rotate(90) scale(2.47243 5.64736)">
<stop stop-color="white"/>
<stop offset="1" stop-color="#F208DA" stop-opacity="0.4"/>
</radialGradient>
<radialGradient id="paint4_radial" cx="0" cy="0" r="1" gradientUnits="userSpaceOnUse" gradientTransform="translate(87.7364 177.332) rotate(90) scale(1.34463 22.0247)">
<stop stop-color="white"/>
<stop offset="1" stop-color="#F208DA" stop-opacity="0.4"/>
</radialGradient>
<radialGradient id="paint5_radial" cx="0" cy="0" r="1" gradientUnits="userSpaceOnUse" gradientTransform="translate(107.488 187.84) rotate(90) scale(4.23713 12.9524)">
<stop stop-color="white"/>
<stop offset="1" stop-color="#F208DA" stop-opacity="0.4"/>
</radialGradient>
<radialGradient id="paint6_radial" cx="0" cy="0" r="1" gradientUnits="userSpaceOnUse" gradientTransform="translate(82.699 191.811) rotate(90) scale(0.598265 11.4754)">
<stop stop-color="white"/>
<stop offset="1" stop-color="#F208DA" stop-opacity="0.4"/>
</radialGradient>
<radialGradient id="paint7_radial" cx="0" cy="0" r="1" gradientUnits="userSpaceOnUse" gradientTransform="translate(65.4181 178.64) rotate(90) scale(3.91544 19.5399)">
<stop stop-color="white"/>
<stop offset="1" stop-color="#F208DA" stop-opacity="0.4"/>
</radialGradient>
<radialGradient id="paint8_radial" cx="0" cy="0" r="1" gradientUnits="userSpaceOnUse" gradientTransform="translate(98.3759 176.14) rotate(90) scale(1.41544 12.5597)">
<stop stop-color="white"/>
<stop offset="1" stop-color="#F208DA" stop-opacity="0.4"/>
</radialGradient>
<radialGradient id="paint9_radial" cx="0" cy="0" r="1" gradientUnits="userSpaceOnUse" gradientTransform="translate(117.555 182.941) rotate(90) scale(5.91912 8.29073)">
<stop stop-color="white"/>
<stop offset="1" stop-color="#F208DA" stop-opacity="0.4"/>
</radialGradient>
<radialGradient id="paint10_radial" cx="0" cy="0" r="1" gradientUnits="userSpaceOnUse" gradientTransform="translate(72.0559 188.171) rotate(90) scale(5.5239 26.9074)">
<stop stop-color="white"/>
<stop offset="1" stop-color="#F208DA" stop-opacity="0.4"/>
</radialGradient>
<radialGradient id="paint11_radial" cx="0" cy="0" r="1" gradientUnits="userSpaceOnUse" gradientTransform="translate(109.422 190.836) rotate(90) scale(2.23346 10.8655)">
<stop stop-color="white"/>
<stop offset="1" stop-color="#F208DA" stop-opacity="0.4"/>
</radialGradient>
<radialGradient id="paint12_radial" cx="0" cy="0" r="1" gradientUnits="userSpaceOnUse" gradientTransform="translate(85.4999 184.191) rotate(90) scale(13.8235 58.8681)">
<stop stop-color="white"/>
<stop offset="1" stop-color="#F208DA" stop-opacity="0.4"/>
</radialGradient>
<radialGradient id="paint13_radial" cx="0" cy="0" r="1" gradientUnits="userSpaceOnUse" gradientTransform="translate(85.0482 184.21) rotate(90) scale(13.8051 58.4163)">
<stop stop-color="white"/>
<stop offset="1" stop-color="#F208DA" stop-opacity="0.4"/>
</radialGradient>
<radialGradient id="paint14_radial" cx="0" cy="0" r="1" gradientUnits="userSpaceOnUse" gradientTransform="translate(85.8841 184.283) rotate(90) scale(13.6948 58.3034)">
<stop stop-color="white"/>
<stop offset="1" stop-color="#F208DA" stop-opacity="0.4"/>
</radialGradient>
<radialGradient id="paint15_radial" cx="0" cy="0" r="1" gradientUnits="userSpaceOnUse" gradientTransform="translate(85.5 184.191) rotate(90) scale(17.5 74.5)">
<stop stop-color="white"/>
<stop offset="1" stop-color="#F208DA" stop-opacity="0.4"/>
</radialGradient>
<radialGradient id="paint16_radial" cx="0" cy="0" r="1" gradientUnits="userSpaceOnUse" gradientTransform="translate(85.5226 184.191) rotate(90) scale(17.4449 74.2515)">
<stop stop-color="white"/>
<stop offset="1" stop-color="#F208DA" stop-opacity="0.4"/>
</radialGradient>
<radialGradient id="paint17_radial" cx="0" cy="0" r="1" gradientUnits="userSpaceOnUse" gradientTransform="translate(124.218 187.638) rotate(90) scale(3.29963 6.27986)">
<stop stop-color="white"/>
<stop offset="1" stop-color="#F208DA" stop-opacity="0.4"/>
</radialGradient>
<radialGradient id="paint18_radial" cx="0" cy="0" r="1" gradientUnits="userSpaceOnUse" gradientTransform="translate(91.6218 192.697) rotate(90) scale(2.09086 28.1239)">
<stop stop-color="white"/>
<stop offset="1" stop-color="#F208DA" stop-opacity="0.4"/>
</radialGradient>
<radialGradient id="paint19_radial" cx="0" cy="0" r="1" gradientUnits="userSpaceOnUse" gradientTransform="translate(66.5926 180.629) rotate(90) scale(7.0367 26.1361)">
<stop stop-color="white"/>
<stop offset="1" stop-color="#F208DA" stop-opacity="0.4"/>
</radialGradient>
<radialGradient id="paint20_radial" cx="0" cy="0" r="1" gradientUnits="userSpaceOnUse" gradientTransform="translate(53.807 190.45) rotate(90) scale(2.82169 10.4137)">
<stop stop-color="white"/>
<stop offset="1" stop-color="#F208DA" stop-opacity="0.4"/>
</radialGradient>
<radialGradient id="paint21_radial" cx="0" cy="0" r="1" gradientUnits="userSpaceOnUse" gradientTransform="translate(111.794 178.961) rotate(90) scale(5.15625 18.7041)">
<stop stop-color="white"/>
<stop offset="1" stop-color="#F208DA" stop-opacity="0.4"/>
</radialGradient>
<radialGradient id="paint22_radial" cx="0" cy="0" r="1" gradientUnits="userSpaceOnUse" gradientTransform="translate(85.5184 183.691) scale(54.5163 11.0004)">
<stop stop-color="#E91BE9"/>
<stop offset="0.2052" stop-color="#CB389D"/>
<stop offset="0.6676" stop-color="#571843" stop-opacity="0"/>
<stop offset="1" stop-opacity="0"/>
</radialGradient>
<linearGradient id="paint23_linear" x1="89.9195" y1="58.7411" x2="89.9195" y2="60.7455" gradientUnits="userSpaceOnUse">
<stop stop-color="#CE44D5"/>
<stop offset="1" stop-color="#34F2FE"/>
</linearGradient>
<linearGradient id="paint24_linear" x1="84.9089" y1="61.5978" x2="84.9089" y2="63.6022" gradientUnits="userSpaceOnUse">
<stop stop-color="#CE44D5"/>
<stop offset="1" stop-color="#34F2FE"/>
</linearGradient>
<linearGradient id="paint25_linear" x1="79.8983" y1="64.4546" x2="79.8983" y2="66.477" gradientUnits="userSpaceOnUse">
<stop stop-color="#CE44D5"/>
<stop offset="1" stop-color="#34F2FE"/>
</linearGradient>
<linearGradient id="paint26_linear" x1="74.8876" y1="67.356" x2="74.8876" y2="69.3603" gradientUnits="userSpaceOnUse">
<stop stop-color="#CE44D5"/>
<stop offset="1" stop-color="#34F2FE"/>
</linearGradient>
<linearGradient id="paint27_linear" x1="95.8472" y1="74.7163" x2="95.8472" y2="100.826" gradientUnits="userSpaceOnUse">
<stop stop-color="#CE44D5"/>
<stop offset="1" stop-color="#34F2FE"/>
</linearGradient>
<linearGradient id="paint28_linear" x1="84.3685" y1="92.9116" x2="84.3685" y2="96.0529" gradientUnits="userSpaceOnUse">
<stop stop-color="#CE44D5"/>
<stop offset="1" stop-color="#34F2FE"/>
</linearGradient>
<linearGradient id="paint29_linear" x1="88.8457" y1="90.3226" x2="88.8457" y2="93.4585" gradientUnits="userSpaceOnUse">
<stop stop-color="#CE44D5"/>
<stop offset="1" stop-color="#34F2FE"/>
</linearGradient>
<linearGradient id="paint30_linear" x1="95.8472" y1="93.6422" x2="95.8472" y2="119.771" gradientUnits="userSpaceOnUse">
<stop stop-color="#CE44D5"/>
<stop offset="1" stop-color="#34F2FE"/>
</linearGradient>
<linearGradient id="paint31_linear" x1="95.8472" y1="112.613" x2="95.8472" y2="138.722" gradientUnits="userSpaceOnUse">
<stop stop-color="#CE44D5"/>
<stop offset="1" stop-color="#34F2FE"/>
</linearGradient>
<linearGradient id="paint32_linear" x1="95.8472" y1="131.539" x2="95.8472" y2="157.674" gradientUnits="userSpaceOnUse">
<stop stop-color="#CE44D5"/>
<stop offset="1" stop-color="#34F2FE"/>
</linearGradient>
<linearGradient id="paint33_linear" x1="59.9674" y1="82.8401" x2="59.9674" y2="100.826" gradientUnits="userSpaceOnUse">
<stop stop-color="#CE44D5"/>
<stop offset="1" stop-color="#34F2FE"/>
</linearGradient>
<linearGradient id="paint34_linear" x1="59.9674" y1="101.766" x2="59.9674" y2="119.771" gradientUnits="userSpaceOnUse">
<stop stop-color="#CE44D5"/>
<stop offset="1" stop-color="#34F2FE"/>
</linearGradient>
<linearGradient id="paint35_linear" x1="59.9674" y1="120.736" x2="59.9674" y2="138.722" gradientUnits="userSpaceOnUse">
<stop stop-color="#CE44D5"/>
<stop offset="1" stop-color="#34F2FE"/>
</linearGradient>
<linearGradient id="paint36_linear" x1="59.9674" y1="139.662" x2="59.9674" y2="157.674" gradientUnits="userSpaceOnUse">
<stop stop-color="#CE44D5"/>
<stop offset="1" stop-color="#34F2FE"/>
</linearGradient>
<linearGradient id="paint37_linear" x1="124.303" y1="56.6773" x2="92.2955" y2="56.6773" gradientUnits="userSpaceOnUse">
<stop stop-color="#BC59DA"/>
<stop offset="0.973958" stop-color="#5809FA"/>
</linearGradient>
<clipPath id="clip0">
<rect width="149" height="35" fill="white" transform="translate(11 166.691)"/>
</clipPath>
<clipPath id="clip1">
<rect width="105" height="124" fill="white" transform="matrix(-1 0 0 1 153 45)"/>
</clipPath>
</defs>
</svg>
