<svg viewBox="0 0 24 24" fill="none" xmlns="http://www.w3.org/2000/svg">
    <path d="M12 24C18.6274 24 24 18.6274 24 12C24 5.37258 18.6274 0 12 0C5.37258 0 0 5.37258 0 12C0 18.6274 5.37258 24 12 24Z" fill="url(#paint0_linear)"/>
    <path fill-rule="evenodd" clip-rule="evenodd" d="M4.20553 13.3185L4.2025 13.4534C4.2025 13.6239 4.2174 13.7925 4.24636 13.9583H4.2025V14.2195C4.20249 14.3462 4.21069 14.4727 4.22705 14.5983C4.54484 17.0361 7.90346 18.9541 12 18.9541C16.0966 18.9541 19.4555 17.0361 19.7733 14.5983C19.7896 14.4727 19.7978 14.3462 19.7978 14.2195V13.9583H19.7539C19.7829 13.7925 19.7978 13.6239 19.7978 13.4534C19.7978 13.4082 19.7967 13.3632 19.7948 13.3185C19.677 10.7663 16.2323 8.7191 12 8.7191C7.76774 8.7191 4.32305 10.766 4.20553 13.3185ZM3.56498 13.3185C3.62291 11.7613 4.68112 10.4532 6.15422 9.55883C7.68112 8.63193 9.74953 8.0791 12 8.0791C14.2505 8.0791 16.3192 8.63165 17.8458 9.55883C19.3189 10.4532 20.3771 11.7613 20.4351 13.3185H20.4375V14.2195C20.4375 15.8361 19.3611 17.1941 17.8458 18.1141C16.3192 19.0413 14.2508 19.5936 12 19.5936C9.74926 19.5936 7.68112 19.041 6.15422 18.1141C4.63891 17.1941 3.5625 15.8361 3.5625 14.2195V13.3185H3.56498Z" fill="#606063"/>
    <path d="M19.7977 14.2195C19.7977 16.8344 16.3067 18.9538 12.0002 18.9538C7.6937 18.9538 4.20239 16.8341 4.20239 14.2195V13.47H19.7977V14.2195Z" fill="#BEBEBE"/>
    <path d="M19.7977 13.4536C19.7977 16.0685 16.3067 18.1882 12.0002 18.1882C7.6937 18.1882 4.20239 16.0685 4.20239 13.4536C4.20239 10.8387 7.69343 8.71924 12.0002 8.71924C16.3069 8.71924 19.7977 10.839 19.7977 13.4539V13.4536Z" fill="#F5F3F3"/>
    <path fill-rule="evenodd" clip-rule="evenodd" d="M5.40218 12.1159V12.1247C5.40218 12.3399 5.43335 12.5509 5.49321 12.7556H5.40218V13.0329C5.40218 13.1553 5.41211 13.2762 5.43197 13.3953C5.72907 15.1956 8.21624 16.6006 11.2402 16.6006C14.2642 16.6006 16.7514 15.1953 17.0488 13.3953C17.0684 13.2762 17.0786 13.1551 17.0786 13.0329V12.7556H16.9876C17.0461 12.5564 17.0768 12.35 17.0786 12.1424V12.1159C17.0709 10.1495 14.4598 8.55699 11.2405 8.55699C8.02121 8.55699 5.41018 10.1495 5.40218 12.1159ZM4.76245 12.1159V13.0331C4.76245 14.3255 5.61735 15.392 6.77873 16.1018C7.95114 16.8182 9.53045 17.2406 11.2405 17.2406C12.9506 17.2406 14.5299 16.8182 15.7026 16.1018C16.864 15.392 17.7186 14.3255 17.7186 13.0331V12.1449L17.7189 12.125C17.7189 10.8326 16.864 9.7661 15.7026 9.05603C14.5302 8.33961 12.9509 7.91699 11.2408 7.91699C9.53073 7.91699 7.95142 8.33934 6.77873 9.05603C5.61983 9.76416 4.76659 10.8276 4.76273 12.1159H4.76245Z" fill="#612F01"/>
    <path d="M17.0785 13.033C17.0785 15.0035 14.4647 16.601 11.2404 16.601C8.01617 16.601 5.4021 15.0035 5.4021 13.033V12.1958H17.0785V13.033Z" fill="#FEDC90"/>
    <path d="M17.0785 12.1246C17.0785 14.0951 14.4647 15.6926 11.2404 15.6926C8.01617 15.6926 5.4021 14.0954 5.4021 12.1246C5.4021 10.1539 8.01617 8.55664 11.2404 8.55664C14.4647 8.55664 17.0785 10.1542 17.0785 12.1246Z" fill="#D1884F"/>
    <path fill-rule="evenodd" clip-rule="evenodd" d="M7.16197 10.1965V10.2053C7.16197 10.4205 7.19315 10.6315 7.25301 10.8362H7.1617V11.1134C7.1617 11.2359 7.1719 11.3567 7.19149 11.4759C7.48887 13.2762 9.97604 14.6811 13 14.6811C16.024 14.6811 18.5112 13.2762 18.8086 11.4759C18.8282 11.3567 18.8384 11.2356 18.8384 11.1134V10.8362H18.7474C18.8059 10.637 18.8366 10.4306 18.8384 10.2229V10.1965C18.8304 8.23011 16.2196 6.63756 13 6.63756C9.78046 6.63756 7.1697 8.23011 7.16197 10.1965ZM6.52197 10.1965V11.1137C6.52197 12.4061 7.37659 13.4726 8.53825 14.1824C9.71066 14.8988 11.2897 15.3211 13 15.3211C14.7104 15.3211 16.2894 14.8988 17.4618 14.1824C18.6235 13.4726 19.4781 12.4061 19.4781 11.1137V10.2056C19.4781 8.91315 18.6235 7.84666 17.4621 7.13659C16.2894 6.4199 14.7104 5.99756 13 5.99756C11.2897 5.99756 9.71066 6.4199 8.53825 7.13659C7.37935 7.84473 6.52611 8.90818 6.52197 10.1965Z" fill="#612F01"/>
    <path d="M18.8378 11.1136C18.8378 13.0841 16.224 14.6816 12.9997 14.6816C9.77544 14.6816 7.16138 13.0841 7.16138 11.1136V10.2764H18.8378V11.1136Z" fill="#FEDC90"/>
    <path d="M18.8378 10.2052C18.8378 12.1757 16.224 13.7732 12.9997 13.7732C9.77544 13.7732 7.16138 12.1757 7.16138 10.2052C7.16138 8.23472 9.77517 6.63721 12.9997 6.63721C16.2243 6.63721 18.8378 8.23472 18.8378 10.2052Z" fill="#D1884F"/>
    <path fill-rule="evenodd" clip-rule="evenodd" d="M5.40218 8.27699V8.28582C5.40218 8.50127 5.43335 8.71202 5.49321 8.91671H5.40218V9.19395C5.40218 9.31644 5.41211 9.43726 5.43197 9.55644C5.72907 11.3567 8.21624 12.7617 11.2402 12.7617C14.2642 12.7617 16.7514 11.3567 17.0488 9.55644C17.0684 9.43726 17.0786 9.31616 17.0786 9.19395V8.91671H16.9876C17.0461 8.7175 17.0768 8.51111 17.0786 8.30347V8.27699C17.0709 6.31065 14.4598 4.71809 11.2405 4.71809C8.02121 4.71809 5.41018 6.31065 5.40218 8.27699ZM4.76245 8.27699V9.19423C4.76245 10.4866 5.61735 11.5531 6.77873 12.2629C7.95114 12.9793 9.53045 13.402 11.2405 13.402C12.9506 13.402 14.5299 12.9796 15.7026 12.2629C16.864 11.5531 17.7186 10.4866 17.7186 9.19423V8.30596L17.7189 8.28609C17.7189 6.99368 16.864 5.9272 15.7026 5.2174C14.5302 4.50071 12.9509 4.07837 11.2408 4.07837C9.53073 4.07837 7.95142 4.50071 6.77873 5.2174C5.61983 5.92554 4.76659 6.98871 4.76273 8.27727L4.76245 8.27699Z" fill="#612F01"/>
    <path d="M17.0785 9.19417C17.0785 11.1647 14.4647 12.7622 11.2404 12.7622C8.01617 12.7622 5.4021 11.1647 5.4021 9.19417V8.35693H17.0785V9.19417Z" fill="#FEDC90"/>
    <path d="M17.0785 8.28577C17.0785 10.2563 14.4647 11.8538 11.2404 11.8538C8.01617 11.8538 5.4021 10.2563 5.4021 8.28577C5.4021 6.31529 8.01617 4.71777 11.2404 4.71777C14.4647 4.71777 17.0785 6.31529 17.0785 8.28577Z" fill="#D1884F"/>
    <path fill-rule="evenodd" clip-rule="evenodd" d="M6.78296 8.50806C6.78296 9.16599 7.26103 9.75523 8.01524 10.1516L7.49248 11.0567H7.49275H7.49248V13.3472C7.49262 13.4926 7.55045 13.632 7.65327 13.7349C7.75608 13.8377 7.89549 13.8955 8.04089 13.8956C8.1863 13.8955 8.3257 13.8377 8.42852 13.7349C8.53133 13.632 8.58916 13.4926 8.5893 13.3472V11.5257L9.15151 10.5519C9.51096 10.6281 9.89689 10.6694 10.2985 10.6694C12.2401 10.6694 13.8139 9.70171 13.8139 8.50806C13.8139 7.3144 12.2401 6.34668 10.2985 6.34668C8.35703 6.34668 6.78296 7.3144 6.78296 8.50806Z" fill="url(#paint1_linear)"/>
    <path fill-rule="evenodd" clip-rule="evenodd" d="M8.01539 10.1513L7.77539 10.0125C7.16132 9.62328 6.78339 9.0928 6.78339 8.50769C6.78339 7.31404 8.35718 6.34631 10.2987 6.34631C12.2402 6.34631 13.8143 7.31404 13.8143 8.50769C13.8143 9.70135 12.2405 10.6691 10.2987 10.6691C9.9134 10.6699 9.52907 10.6305 9.15194 10.5516L8.58973 11.5253V13.3469C8.58959 13.4923 8.53176 13.6317 8.42895 13.7345C8.32613 13.8373 8.18672 13.8951 8.04132 13.8953C7.89592 13.8951 7.75651 13.8373 7.65369 13.7345C7.55088 13.6317 7.49305 13.4923 7.49291 13.3469V11.0564L8.01539 10.1513ZM6.93318 11.066V13.3469C6.9334 13.6407 7.05022 13.9224 7.25799 14.1302C7.46576 14.338 7.74749 14.4548 8.04132 14.455C8.3352 14.4549 8.617 14.3381 8.82483 14.1303C9.03266 13.9225 9.14951 13.6407 9.14973 13.3469V11.6754L9.44132 11.1703C9.72541 11.2097 10.0119 11.2293 10.2987 11.2291C11.3561 11.2291 12.3401 10.9667 13.0777 10.5132C13.8066 10.0652 14.374 9.37197 14.374 8.50797C14.374 7.64397 13.8066 6.95073 13.0777 6.50273C12.3401 6.04893 11.3561 5.78687 10.2987 5.78687C9.24132 5.78687 8.2576 6.04921 7.51967 6.50273C6.79111 6.95073 6.22339 7.64397 6.22339 8.50797C6.22339 9.26631 6.65787 9.89086 7.26118 10.338L7.01208 10.7698C6.98808 10.81 6.96917 10.8531 6.9558 10.898C6.93971 10.9526 6.93208 11.0094 6.93318 11.0663V11.066Z" fill="#633001"/>
    <path d="M7.88232 7.59726C7.88232 8.21575 8.67019 8.71699 9.64177 8.71699C10.6134 8.71699 11.4012 8.21575 11.4012 7.59726C11.4012 6.97878 10.6136 6.47754 9.64177 6.47754C8.66991 6.47754 7.88232 6.97878 7.88232 7.59726Z" fill="#9E7200"/>
    <path d="M7.88135 7.11719H11.4002V7.59691H7.88135V7.11719Z" fill="#9E7200"/>
    <path d="M7.88159 7.11728C7.88159 7.73577 8.66945 8.23701 9.64104 8.23701C10.6126 8.23701 11.4005 7.73577 11.4005 7.11728C11.4005 6.4988 10.6129 5.99756 9.64104 5.99756C8.66918 5.99756 7.88159 6.4988 7.88159 7.11728Z" fill="#F0B90B"/>
    <path d="M8.97313 6.98227L9.46885 6.66668C9.52018 6.63404 9.57975 6.6167 9.64058 6.6167C9.70141 6.6167 9.76097 6.63404 9.8123 6.66668L10.3083 6.98227C10.331 6.99673 10.3496 7.01666 10.3626 7.04024C10.3755 7.06382 10.3823 7.09027 10.3823 7.11716C10.3823 7.14405 10.3755 7.17051 10.3626 7.19408C10.3496 7.21766 10.331 7.2376 10.3083 7.25206L9.8123 7.56764C9.76097 7.60029 9.70141 7.61763 9.64058 7.61763C9.57975 7.61763 9.52018 7.60029 9.46885 7.56764L8.97313 7.25206C8.95046 7.2376 8.9318 7.21766 8.91887 7.19408C8.90595 7.17051 8.89917 7.14405 8.89917 7.11716C8.89917 7.09027 8.90595 7.06382 8.91887 7.04024C8.9318 7.01666 8.95046 6.99673 8.97313 6.98227Z" fill="#9E7200"/>
    <path fill-rule="evenodd" clip-rule="evenodd" d="M8.09591 5.85319C8.51715 5.58533 9.06474 5.43774 9.64074 5.43774C10.2167 5.43774 10.7643 5.58533 11.1853 5.85319C11.5999 6.11692 11.9599 6.5503 11.9599 7.11719V7.59719C11.9599 8.16409 11.5999 8.59747 11.1853 8.86119C10.7643 9.12933 10.2165 9.27664 9.64074 9.27664C9.06501 9.27664 8.51715 9.12905 8.09591 8.86119C7.68156 8.59747 7.32129 8.16409 7.32129 7.59719V7.11719C7.32129 6.5503 7.68156 6.11692 8.09591 5.85319ZM9.64074 5.99747C8.66887 5.99747 7.88129 6.49871 7.88129 7.11719V7.59719C7.88129 8.21567 8.66887 8.71692 9.64074 8.71692C10.6126 8.71692 11.4002 8.21567 11.4002 7.59719V7.11719C11.4002 6.49871 10.6123 5.99747 9.64074 5.99747Z" fill="#633001"/>
    <defs>
        <linearGradient id="paint0_linear" x1="3012" y1="696" x2="3012" y2="2784" gradientUnits="userSpaceOnUse">
            <stop stop-color="#54DADE"/>
            <stop offset="0.762" stop-color="#24C7D6"/>
        </linearGradient>
        <linearGradient id="paint1_linear" x1="846.757" y1="400.916" x2="846.757" y2="603.961" gradientUnits="userSpaceOnUse">
            <stop stop-color="#9F4A08"/>
            <stop offset="0.37" stop-color="#7D3900"/>
            <stop offset="1" stop-color="#8D4104"/>
        </linearGradient>
    </defs>
</svg>
