<svg viewBox="0 0 24 24" fill="none" xmlns="http://www.w3.org/2000/svg">
    <path d="M12 24C18.6274 24 24 18.6274 24 12C24 5.37258 18.6274 0 12 0C5.37258 0 0 5.37258 0 12C0 18.6274 5.37258 24 12 24Z" fill="white"/>
    <path fill-rule="evenodd" clip-rule="evenodd" d="M11.9996 10.6669H14.103V12.6322H11.9996V20.7084L11.447 20.5012C11.1935 20.4091 10.7789 20.2477 10.2724 20.0174L10.0343 19.9101V4.39486L12.13 3.75L14.1107 4.35645V6.48299L12.13 5.86884L11.9996 5.90721V10.6669ZM7.45489 12.6324H4.77563V6.03022L9.42019 4.59464V6.70581L6.74093 7.53491V10.6671H9.41252V19.749L8.8214 19.4419C6.97892 18.4899 4.77563 16.8855 4.77563 14.6515V13.5997H6.74093V14.6515C6.74093 15.1121 6.97892 15.6034 7.45489 16.1024V12.6324ZM14.7019 4.54846V17.0005C16.0376 16.3173 16.6671 15.4958 16.6671 15.4958V12.6323H19.4616V6.01475L14.7019 4.54846ZM17.4964 10.667H16.6671V7.26611L17.4964 7.51943V10.667ZM12.8594 18.5667C15.1703 17.6992 17.4964 16.1945 17.4964 14.7896V13.592H19.4616V14.7896C19.4616 18.1291 14.6175 20.0483 13.1358 20.555L12.5984 20.7393V18.6665L12.8594 18.5667Z" fill="black"/>
    <g style="mix-blend-mode:multiply" opacity="0.2">
        <g style="mix-blend-mode:multiply" opacity="0.2">
            <path fill-rule="evenodd" clip-rule="evenodd" d="M12 23.2174C18.1953 23.2174 23.2174 18.1952 23.2174 12C23.2174 5.8048 18.1953 0.782621 12 0.782621C5.8048 0.782621 0.78262 5.8048 0.78262 12C0.78262 18.1952 5.8048 23.2174 12 23.2174ZM12 24C18.6273 24 24 18.6274 24 12C24 5.37258 18.6273 0 12 0C5.37258 0 0 5.37258 0 12C0 18.6274 5.37258 24 12 24Z" fill="#191326"/>
        </g>
    </g>
</svg>
