<svg viewBox="0 0 24 24" fill="none" xmlns="http://www.w3.org/2000/svg">
    <path d="M12 24C18.6274 24 24 18.6274 24 12C24 5.3726 18.6274 0 12 0C5.3726 0 0 5.3726 0 12C0 18.6274 5.3726 24 12 24Z" fill="white"/>
    <path d="M13.75 11.2315C13.7375 10.2764 12.9618 9.50616 12 9.5V13C12.9743 12.9938 13.7563 12.2051 13.75 11.2315C13.75 11.2377 13.75 11.2377 13.75 11.2315Z" fill="#077FA2"/>
    <path d="M10.25 11.2315C10.2625 10.2764 11.0383 9.50616 12 9.5V13C11.0258 12.9938 10.2438 12.2051 10.25 11.2315C10.25 11.2377 10.25 11.2377 10.25 11.2315Z" fill="#17A84B"/>
    <path d="M15.965 4.73323C14.9605 4.16919 13.9738 4.67052 13.7518 5.7816C13.5883 6.57925 13.9737 7.05788 14.616 7.48519C17.349 9.31981 17.565 12.6587 15.3343 14.6984C14.949 14.989 14.546 15.2511 14.1255 15.4847C13.8278 15.6499 13.7578 15.5303 13.7403 15.2454C13.7403 15.046 13.7228 14.8465 13.6875 14.6528C13.5943 13.9406 13.0453 13.405 12.3213 13.3993L12 13.3879V20.9829V21H12.2453C13.0045 21 13.5768 20.5499 13.705 19.8376C13.7343 19.6839 13.7518 19.5243 13.7578 19.3648C13.7518 19.1084 13.9328 18.8805 14.1955 18.8349C14.7095 18.6925 15.2058 18.5101 15.6905 18.2879C17.927 17.1883 19.2468 15.4961 19.708 13.2227C19.7137 13.1828 19.7198 13.1429 19.7255 13.1088C19.9065 12.4136 20 11.6958 20 10.9721C19.8833 8.47659 18.5985 6.20891 15.965 4.73323Z" fill="#077FA2"/>
    <path d="M8.03503 4.73323C9.03954 4.16919 10.0263 4.67052 10.2483 5.7816C10.4118 6.57925 10.0263 7.05788 9.38405 7.48519C6.65103 9.31981 6.43504 12.6587 8.66579 14.6984C9.05104 14.989 9.45402 15.2511 9.87453 15.4847C10.1723 15.6499 10.2423 15.5303 10.2598 15.2454C10.2598 15.046 10.2773 14.8465 10.3125 14.6528C10.4058 13.9406 10.9548 13.405 11.6788 13.3993L12 13.3879V20.9829V21H11.7548C10.9955 21 10.4233 20.5499 10.295 19.8376C10.2657 19.6839 10.2483 19.5243 10.2423 19.3648C10.2483 19.1084 10.0673 18.8805 9.80451 18.8349C9.29053 18.6925 8.79425 18.5101 8.30952 18.2879C6.07301 17.1883 4.75329 15.4961 4.29205 13.2227C4.2863 13.1828 4.28028 13.1429 4.27453 13.1088C4.09352 12.4136 4 11.6958 4 10.9721C4.11678 8.47659 5.40152 6.20891 8.03503 4.73323Z" fill="#17A84B"/>
    <g style="mix-blend-mode:multiply" opacity="0.2">
        <g style="mix-blend-mode:multiply" opacity="0.2">
            <path fill-rule="evenodd" clip-rule="evenodd" d="M12 23.2174C18.1952 23.2174 23.2174 18.1952 23.2174 12C23.2174 5.80483 18.1952 0.782621 12 0.782621C5.80483 0.782621 0.782622 5.80483 0.782622 12C0.782622 18.1952 5.80483 23.2174 12 23.2174ZM12 24C18.6274 24 24 18.6274 24 12C24 5.3726 18.6274 0 12 0C5.3726 0 0 5.3726 0 12C0 18.6274 5.3726 24 12 24Z" fill="#191326"/>
        </g>
    </g>
</svg>
