<svg width="18" height="18" viewBox="0 0 18 18" fill="none" xmlns="http://www.w3.org/2000/svg">
<path d="M8.99991 7.33301C9.20594 7.33301 9.40733 7.27192 9.57863 7.15746C9.74993 7.043 9.88345 6.88031 9.96229 6.68997C10.0411 6.49963 10.0618 6.29019 10.0216 6.08812C9.98137 5.88606 9.88216 5.70045 9.73648 5.55477C9.5908 5.40909 9.4052 5.30988 9.20313 5.26969C9.00107 5.2295 8.79162 5.25012 8.60128 5.32897C8.41095 5.40781 8.24826 5.54132 8.1338 5.71262C8.01934 5.88392 7.95825 6.08532 7.95825 6.29134C7.95825 6.56761 8.06799 6.83256 8.26334 7.02791C8.45869 7.22326 8.72365 7.33301 8.99991 7.33301ZM8.99991 8.58301C8.7789 8.58301 8.56694 8.67081 8.41066 8.82709C8.25438 8.98337 8.16658 9.19533 8.16658 9.41634L8.16658 11.9163C8.16658 12.1374 8.25438 12.3493 8.41066 12.5056C8.56694 12.6619 8.7789 12.7497 8.99991 12.7497C9.22093 12.7497 9.43289 12.6619 9.58917 12.5056C9.74545 12.3493 9.83325 12.1374 9.83325 11.9163L9.83325 9.41634C9.83325 9.19533 9.74545 8.98337 9.58917 8.82709C9.43289 8.67081 9.22093 8.58301 8.99991 8.58301ZM8.99992 17.333C10.6481 17.333 12.2593 16.8443 13.6297 15.9286C15.0001 15.0129 16.0682 13.7114 16.6989 12.1887C17.3296 10.666 17.4947 8.99043 17.1731 7.37392C16.8516 5.75741 16.0579 4.27256 14.8925 3.10712C13.727 1.94168 12.2422 1.14801 10.6257 0.826462C9.00916 0.50492 7.3336 0.669948 5.81088 1.30068C4.28817 1.93141 2.98668 2.99951 2.071 4.36992C1.15532 5.74033 0.666581 7.3515 0.666581 8.99968C0.669008 11.2091 1.54776 13.3273 3.11004 14.8896C4.67232 16.4518 6.79052 17.3306 8.99992 17.333ZM8.99991 2.33301C10.3185 2.33301 11.6074 2.724 12.7037 3.45654C13.8 4.18909 14.6545 5.23028 15.1591 6.44845C15.6637 7.66663 15.7957 9.00707 15.5385 10.3003C15.2812 11.5935 14.6463 12.7814 13.714 13.7137C12.7816 14.6461 11.5937 15.281 10.3005 15.5382C9.00731 15.7955 7.66687 15.6635 6.44869 15.1589C5.23052 14.6543 4.18933 13.7998 3.45678 12.7035C2.72424 11.6071 2.33325 10.3182 2.33325 8.99968C2.33545 7.23224 3.03854 5.53783 4.28831 4.28807C5.53807 3.0383 7.23248 2.33521 8.99991 2.33301Z" fill="#ADBCC7"/>
</svg>
