<svg width="18" height="18" viewBox="0 0 18 18" fill="none" xmlns="http://www.w3.org/2000/svg">
<path d="M16.5001 15.667H15.6667V3.16699C15.6667 2.94598 15.579 2.73402 15.4227 2.57774C15.2664 2.42146 15.0544 2.33366 14.8334 2.33366C14.6124 2.33366 14.4004 2.42146 14.2442 2.57774C14.0879 2.73402 14.0001 2.94598 14.0001 3.16699V15.667H12.3334V9.83366C12.3334 9.61265 12.2456 9.40068 12.0893 9.2444C11.9331 9.08812 11.7211 9.00033 11.5001 9.00033C11.2791 9.00033 11.0671 9.08812 10.9108 9.2444C10.7545 9.40068 10.6667 9.61265 10.6667 9.83366V15.667H9.00008V6.50033C9.00008 6.27931 8.91228 6.06735 8.756 5.91107C8.59972 5.75479 8.38776 5.66699 8.16675 5.66699C7.94573 5.66699 7.73377 5.75479 7.57749 5.91107C7.42121 6.06735 7.33342 6.27931 7.33342 6.50033V15.667H5.66675V13.167C5.66675 12.946 5.57895 12.734 5.42267 12.5777C5.26639 12.4215 5.05443 12.3337 4.83342 12.3337C4.6124 12.3337 4.40044 12.4215 4.24416 12.5777C4.08788 12.734 4.00008 12.946 4.00008 13.167V15.667H2.33341V1.50033C2.33341 1.27931 2.24562 1.06735 2.08934 0.91107C1.93306 0.75479 1.7211 0.666992 1.50008 0.666992C1.27907 0.666992 1.06711 0.75479 0.910826 0.91107C0.754545 1.06735 0.666748 1.27931 0.666748 1.50033V16.5003C0.666748 16.7213 0.754545 16.9333 0.910826 17.0896C1.06711 17.2459 1.27907 17.3337 1.50008 17.3337H16.5001C16.7211 17.3337 16.9331 17.2459 17.0893 17.0896C17.2456 16.9333 17.3334 16.7213 17.3334 16.5003C17.3334 16.2793 17.2456 16.0674 17.0893 15.9111C16.9331 15.7548 16.7211 15.667 16.5001 15.667Z" fill="#ADBCC7"/>
</svg>
