<svg width="18" height="18" viewBox="0 0 18 18" fill="none" xmlns="http://www.w3.org/2000/svg">
<path d="M11.5818 9.52866L9.83342 8.51949V4.83366C9.83342 4.61265 9.74562 4.40068 9.58934 4.2444C9.43306 4.08812 9.2211 4.00033 9.00008 4.00033C8.77907 4.00033 8.56711 4.08812 8.41083 4.2444C8.25455 4.40068 8.16675 4.61265 8.16675 4.83366V9.00033C8.16676 9.1466 8.20526 9.2903 8.2784 9.41698C8.35154 9.54366 8.45674 9.64885 8.58342 9.72199L10.7484 10.972C10.8432 11.0276 10.9481 11.0639 11.057 11.0787C11.1659 11.0936 11.2766 11.0868 11.3829 11.0587C11.4891 11.0307 11.5888 10.9818 11.6761 10.9151C11.7634 10.8483 11.8366 10.7649 11.8916 10.6698C11.9465 10.5746 11.9821 10.4695 11.9963 10.3605C12.0104 10.2515 12.0029 10.1408 11.9741 10.0347C11.9453 9.92869 11.8958 9.82937 11.8285 9.74251C11.7611 9.65566 11.6773 9.58298 11.5818 9.52866ZM9.00008 0.666992C7.35191 0.666992 5.74074 1.15573 4.37033 2.07141C2.99992 2.98709 1.93182 4.28858 1.30109 5.8113C0.670359 7.33401 0.505331 9.00957 0.826874 10.6261C1.14842 12.2426 1.94209 13.7274 3.10753 14.8929C4.27297 16.0583 5.75782 16.852 7.37433 17.1735C8.99084 17.4951 10.6664 17.3301 12.1891 16.6993C13.7118 16.0686 15.0133 15.0005 15.929 13.6301C16.8447 12.2597 17.3334 10.6485 17.3334 9.00033C17.331 6.79093 16.4522 4.67273 14.89 3.11045C13.3277 1.54817 11.2095 0.669419 9.00008 0.666992ZM9.00008 15.667C7.68154 15.667 6.39261 15.276 5.29628 14.5435C4.19996 13.8109 3.34547 12.7697 2.84089 11.5515C2.3363 10.3334 2.20428 8.99293 2.46152 7.69972C2.71875 6.40652 3.35369 5.21863 4.28604 4.28628C5.21839 3.35393 6.40628 2.71899 7.69948 2.46176C8.99269 2.20452 10.3331 2.33654 11.5513 2.84113C12.7695 3.34571 13.8107 4.2002 14.5432 5.29652C15.2758 6.39285 15.6668 7.68178 15.6668 9.00033C15.6645 10.7678 14.9615 12.4622 13.7117 13.7119C12.4619 14.9617 10.7675 15.6648 9.00008 15.667Z" fill="#ADBCC7"/>
</svg>
